<svg width="432" height="65" viewBox="0 0 432 65" fill="none" xmlns="http://www.w3.org/2000/svg">
<path d="M43.864 24.448C43.864 27.2 43.992 29.888 44.248 32.512C44.568 35.072 45.048 38.688 45.688 43.36C46.904 51.232 47.512 57.504 47.512 62.176C47.512 63.136 47.32 63.712 46.936 63.904C46.552 64.096 46.104 64.192 45.592 64.192C45.08 64.192 44.728 64.192 44.536 64.192C43.64 64.192 42.936 64.096 42.424 63.904C41.912 63.648 41.496 63.072 41.176 62.176L39.16 36.064C38.968 33.44 38.712 28.16 38.392 20.224C35.64 23.424 32.92 25.856 30.232 27.52C27.544 29.12 24.792 29.92 21.976 29.92C17.944 29.92 13.912 27.072 9.88 21.376C10.072 22.336 10.168 23.616 10.168 25.216C10.168 26.816 10.168 27.744 10.168 28L10.072 59.392C10.072 60.032 9.72 60.544 9.016 60.928C8.376 61.248 7.704 61.408 7 61.408C6.104 61.408 5.464 61.088 5.08 60.448C4.76 59.744 4.504 58.816 4.312 57.664V44.224C4.312 42.176 4.376 39.872 4.504 37.312C4.632 34.752 4.728 32.96 4.792 31.936C5.112 27.456 5.272 23.392 5.272 19.744C5.272 18.656 5.08 17.632 4.696 16.672C4.312 15.648 3.736 14.528 2.968 13.312C2.2 12.096 1.624 11.04 1.24 10.144C0.92 9.248 0.76 8.288 0.76 7.264C0.76 6.048 1.368 5.44 2.584 5.44C4.504 5.44 6.072 6.144 7.288 7.552C8.504 8.896 9.816 10.944 11.224 13.696C12.44 15.936 13.496 17.696 14.392 18.976C15.288 20.256 16.44 21.376 17.848 22.336C19.256 23.232 20.952 23.68 22.936 23.68C25.816 23.808 28.184 23.264 30.04 22.048C31.896 20.768 33.304 19.232 34.264 17.44C35.224 15.648 36.152 13.472 37.048 10.912C37.816 8.8 38.488 7.328 39.064 6.496C39.64 5.6 40.344 5.248 41.176 5.44C43.096 5.312 44.056 7.072 44.056 10.72C44.056 13.792 44.024 16.064 43.96 17.536L43.864 24.448ZM77.0245 64.096C73.2485 64.096 69.8245 63.264 66.7525 61.6C63.7445 59.872 61.3765 57.504 59.6485 54.496C57.9845 51.424 57.1525 47.936 57.1525 44.032C57.1525 37.632 59.4885 32.864 64.1605 29.728C68.8965 26.592 74.6885 25.024 81.5365 25.024C84.6725 25.024 87.5845 25.792 90.2725 27.328C93.0245 28.864 95.2325 31.072 96.8965 33.952C98.5605 36.832 99.3925 40.16 99.3925 43.936C99.3925 48.032 98.3365 51.616 96.2245 54.688C94.1125 57.696 91.3285 60.032 87.8725 61.696C84.4805 63.296 80.8645 64.096 77.0245 64.096ZM75.9685 58.624C81.9205 58.624 86.4325 57.28 89.5045 54.592C92.5765 51.904 94.1125 47.968 94.1125 42.784C94.1125 39.264 92.8965 36.224 90.4645 33.664C88.0965 31.104 84.7685 29.824 80.4805 29.824C77.6005 29.824 74.6885 30.368 71.7445 31.456C68.8005 32.544 66.3685 34.176 64.4485 36.352C62.5285 38.528 61.5685 41.152 61.5685 44.224C61.5685 46.784 62.2085 49.184 63.4885 51.424C64.7685 53.6 66.4965 55.36 68.6725 56.704C70.9125 57.984 73.3445 58.624 75.9685 58.624ZM123.54 64.096C121.684 64.096 119.252 61.344 116.244 55.84C113.3 50.272 109.876 43.232 105.972 34.72L103.188 28.768C103.188 28.128 103.572 27.52 104.34 26.944C105.108 26.304 106.26 26.016 107.796 26.08C108.18 26.784 109.396 29.376 111.444 33.856C113.876 39.104 115.924 43.424 117.588 46.816C119.316 50.144 121.396 53.728 123.828 57.568C124.916 53.6 126.132 49.888 127.476 46.432C128.884 42.912 130.964 37.952 133.716 31.552L135.156 28.192C135.54 27.424 136.276 27.04 137.364 27.04C138.132 27.04 138.804 27.232 139.38 27.616C139.956 28 140.244 28.544 140.244 29.248C140.244 29.888 139.924 30.56 139.284 31.264C138.836 31.712 138.196 33.024 137.364 35.2C136.532 37.312 135.668 39.68 134.772 42.304C132.34 49.216 130.228 54.624 128.436 58.528C126.644 62.368 125.012 64.224 123.54 64.096ZM150.491 64.096C149.019 64.096 147.835 61.952 146.939 57.664C146.043 53.312 145.467 49.568 145.211 46.432C144.955 43.296 144.603 38.336 144.155 31.552C144.091 30.464 144.059 29.056 144.059 27.328C144.059 25.152 144.219 23.648 144.539 22.816C144.923 21.984 145.531 21.568 146.363 21.568C147.067 21.568 147.611 21.728 147.995 22.048C148.443 22.304 148.827 22.752 149.147 23.392L149.051 27.232C149.051 31.328 149.243 35.2 149.627 38.848C150.075 42.496 150.747 47.392 151.643 53.536C152.155 56.224 152.507 58.432 152.699 60.16C152.827 61.056 152.667 61.952 152.219 62.848C151.771 63.68 151.195 64.096 150.491 64.096ZM148.091 11.296C146.683 11.296 145.627 10.752 144.923 9.664C144.283 8.576 143.963 7.232 143.963 5.632C143.963 4.928 143.995 4.416 144.059 4.096C143.995 3.072 144.571 2.56 145.787 2.56C146.683 2.56 147.579 2.784 148.475 3.232C149.435 3.616 149.723 3.904 149.339 4.096C149.979 5.76 150.299 7.072 150.299 8.032C150.299 8.864 150.107 9.536 149.723 10.048C149.339 10.496 148.795 10.912 148.091 11.296ZM183.965 64C179.869 64 176.093 63.2 172.637 61.6C169.181 60 166.429 57.728 164.381 54.784C162.333 51.84 161.309 48.448 161.309 44.608C161.309 40.32 162.109 36.32 163.709 32.608C165.309 28.832 167.645 25.824 170.717 23.584C173.853 21.28 177.501 20.128 181.661 20.128C186.013 20.128 189.309 21.536 191.549 24.352C193.789 27.104 194.845 30.592 194.717 34.816C194.717 38.592 193.213 41.472 190.205 43.456C187.261 45.44 183.485 46.432 178.877 46.432C178.173 46.432 177.117 46.368 175.709 46.24C173.405 45.984 171.773 45.632 170.813 45.184C169.853 44.736 169.373 43.84 169.373 42.496C169.373 42.048 169.501 41.728 169.757 41.536C170.013 41.28 170.525 41.152 171.293 41.152C172.125 41.152 173.597 41.344 175.709 41.728C177.757 42.112 179.581 42.304 181.181 42.304C187.069 42.304 190.013 39.744 190.013 34.624C190.013 31.552 189.437 29.12 188.285 27.328C187.197 25.536 185.245 24.64 182.429 24.64C179.357 24.64 176.605 25.472 174.173 27.136C171.741 28.736 169.853 30.848 168.509 33.472C167.229 36.096 166.589 38.88 166.589 41.824C166.589 46.88 167.997 51.04 170.813 54.304C173.629 57.504 177.981 59.104 183.869 59.104C184.573 59.104 185.757 59.04 187.421 58.912C188.125 58.848 188.989 58.656 190.013 58.336C191.037 58.016 191.773 57.792 192.221 57.664C194.973 56.704 196.989 56.224 198.269 56.224C199.229 56.224 199.965 56.48 200.477 56.992C198.877 59.424 196.477 61.216 193.277 62.368C190.141 63.456 187.037 64 183.965 64ZM249.652 64.192C243.252 64.192 238.42 63.104 235.156 60.928C231.892 58.688 230.26 54.656 230.26 48.832C231.54 16.832 233.588 1.568 236.404 3.04C237.812 3.104 238.516 5.28 238.516 9.568C238.516 12.192 238.068 17.728 237.172 26.176C236.02 35.904 235.444 43.04 235.444 47.584L235.54 50.368C235.54 51.776 235.956 53.184 236.788 54.592C237.684 56 238.804 56.768 240.148 56.896L258.964 58.528C259.668 58.592 260.02 59.264 260.02 60.544C260.02 61.696 259.732 62.496 259.156 62.944C258.644 63.392 257.716 63.744 256.372 64L249.652 64.192ZM270.303 64.096C268.831 64.096 267.647 61.952 266.751 57.664C265.855 53.312 265.279 49.568 265.023 46.432C264.767 43.296 264.415 38.336 263.967 31.552C263.903 30.464 263.871 29.056 263.871 27.328C263.871 25.152 264.031 23.648 264.351 22.816C264.735 21.984 265.343 21.568 266.175 21.568C266.879 21.568 267.423 21.728 267.807 22.048C268.255 22.304 268.639 22.752 268.959 23.392L268.863 27.232C268.863 31.328 269.055 35.2 269.439 38.848C269.887 42.496 270.559 47.392 271.455 53.536C271.967 56.224 272.319 58.432 272.511 60.16C272.639 61.056 272.479 61.952 272.031 62.848C271.583 63.68 271.007 64.096 270.303 64.096ZM267.903 11.296C266.495 11.296 265.439 10.752 264.735 9.664C264.095 8.576 263.775 7.232 263.775 5.632C263.775 4.928 263.807 4.416 263.871 4.096C263.807 3.072 264.383 2.56 265.599 2.56C266.495 2.56 267.391 2.784 268.287 3.232C269.247 3.616 269.535 3.904 269.151 4.096C269.791 5.76 270.111 7.072 270.111 8.032C270.111 8.864 269.919 9.536 269.535 10.048C269.151 10.496 268.607 10.912 267.903 11.296ZM281.601 52.672C282.497 51.968 283.361 51.616 284.193 51.616C284.961 51.616 285.697 51.84 286.401 52.288C287.169 52.736 287.937 53.312 288.705 54.016C289.473 54.656 290.081 55.136 290.529 55.456C292.001 56.608 294.017 57.504 296.577 58.144C299.137 58.784 301.857 59.104 304.737 59.104C308.001 59.104 310.913 58.496 313.473 57.28C316.097 56 317.409 54.304 317.409 52.192C317.409 50.272 316.705 48.768 315.297 47.68C313.889 46.528 312.193 45.696 310.209 45.184C308.225 44.672 305.601 44.192 302.337 43.744C297.921 43.232 294.401 42.592 291.777 41.824C289.217 41.056 287.169 39.808 285.633 38.08C284.097 36.288 283.329 33.792 283.329 30.592C283.329 27.136 284.961 24.576 288.225 22.912C291.489 21.184 295.233 20.32 299.457 20.32C303.297 20.32 306.561 21.152 309.249 22.816C312.001 24.416 313.409 26.72 313.473 29.728C313.601 31.456 313.345 32.832 312.705 33.856C312.065 34.816 311.297 35.296 310.401 35.296C309.889 35.296 309.441 35.104 309.057 34.72C308.737 34.336 308.577 33.824 308.577 33.184C308.577 32.16 308.929 31.04 309.633 29.824C309.313 28.288 308.257 27.136 306.465 26.368C304.737 25.6 302.657 25.216 300.225 25.216C296.641 25.216 293.793 25.888 291.681 27.232C289.569 28.512 288.513 30.048 288.513 31.84C288.513 33.76 289.281 35.232 290.817 36.256C292.353 37.28 294.209 38.016 296.385 38.464C298.625 38.848 301.793 39.232 305.889 39.616C309.281 40.064 312.033 40.608 314.145 41.248C316.321 41.888 318.145 43.136 319.617 44.992C321.089 46.784 321.825 49.376 321.825 52.768C321.825 56.288 320.193 59.072 316.929 61.12C313.665 63.104 309.761 64.096 305.217 64.096C299.393 64.096 294.177 63.104 289.569 61.12C285.025 59.136 282.369 56.32 281.601 52.672ZM345.421 64C344.781 64.128 344.365 64.192 344.173 64.192C342.189 64.192 340.813 62.72 340.045 59.776C339.341 56.832 338.989 52.704 338.989 47.392C338.989 45.216 339.053 41.824 339.181 37.216C339.309 34.4 339.373 32.288 339.373 30.88C331.501 30.88 327.565 29.984 327.565 28.192C327.565 27.616 327.629 27.168 327.757 26.848C327.949 26.528 328.333 26.368 328.909 26.368L339.373 25.696C339.309 22.56 339.149 19.136 338.893 15.424C338.637 12.096 338.477 9.024 338.413 6.20799C338.413 5.504 338.701 5.024 339.277 4.768C339.853 4.448 340.461 4.288 341.101 4.288C341.869 4.288 342.509 4.704 343.021 5.536C343.533 6.304 343.789 7.104 343.789 7.936L344.461 25.504L352.429 25.888C353.645 25.76 354.669 25.984 355.501 26.56C356.397 27.136 356.877 28.096 356.941 29.44C355.597 30.016 354.125 30.368 352.525 30.496C350.925 30.624 348.237 30.688 344.461 30.688C344.461 36.64 344.749 46.432 345.325 60.064C345.325 61.472 345.325 62.464 345.325 63.04C345.389 63.552 345.421 63.872 345.421 64ZM384.871 64C380.775 64 376.999 63.2 373.543 61.6C370.087 60 367.335 57.728 365.287 54.784C363.239 51.84 362.215 48.448 362.215 44.608C362.215 40.32 363.015 36.32 364.615 32.608C366.215 28.832 368.551 25.824 371.623 23.584C374.759 21.28 378.407 20.128 382.567 20.128C386.919 20.128 390.215 21.536 392.455 24.352C394.695 27.104 395.751 30.592 395.623 34.816C395.623 38.592 394.119 41.472 391.111 43.456C388.167 45.44 384.391 46.432 379.783 46.432C379.079 46.432 378.023 46.368 376.615 46.24C374.311 45.984 372.679 45.632 371.719 45.184C370.759 44.736 370.279 43.84 370.279 42.496C370.279 42.048 370.407 41.728 370.663 41.536C370.919 41.28 371.431 41.152 372.199 41.152C373.031 41.152 374.503 41.344 376.615 41.728C378.663 42.112 380.487 42.304 382.087 42.304C387.975 42.304 390.919 39.744 390.919 34.624C390.919 31.552 390.343 29.12 389.191 27.328C388.103 25.536 386.151 24.64 383.335 24.64C380.263 24.64 377.511 25.472 375.079 27.136C372.647 28.736 370.759 30.848 369.415 33.472C368.135 36.096 367.495 38.88 367.495 41.824C367.495 46.88 368.903 51.04 371.719 54.304C374.535 57.504 378.887 59.104 384.775 59.104C385.479 59.104 386.663 59.04 388.327 58.912C389.031 58.848 389.895 58.656 390.919 58.336C391.943 58.016 392.679 57.792 393.127 57.664C395.879 56.704 397.895 56.224 399.175 56.224C400.135 56.224 400.871 56.48 401.383 56.992C399.783 59.424 397.383 61.216 394.183 62.368C391.047 63.456 387.943 64 384.871 64ZM413.694 64C411.07 58.88 408.99 52.864 407.454 45.952C405.982 39.04 405.246 33.056 405.246 28C405.246 26.016 405.694 24.736 406.59 24.16C407.102 23.84 407.486 23.68 407.742 23.68C408.19 23.68 408.51 24.032 408.702 24.736C408.958 25.44 409.214 26.72 409.47 28.576L409.95 32.032C410.654 28.576 411.998 25.856 413.982 23.872C416.03 21.824 418.526 20.8 421.47 20.8C424.734 20.8 427.166 21.44 428.766 22.72C430.366 23.936 431.166 25.984 431.166 28.864C427.966 27.328 425.054 26.56 422.43 26.56C419.934 26.56 417.79 27.232 415.998 28.576C414.206 29.92 412.958 31.904 412.254 34.528C411.678 36.32 411.39 38.016 411.39 39.616C411.39 41.344 411.614 42.976 412.062 44.512C412.574 45.984 413.342 47.808 414.366 49.984C415.326 52.224 416.062 54.144 416.574 55.744C417.15 57.344 417.47 59.072 417.534 60.928C417.534 62.016 417.15 62.816 416.382 63.328C415.614 63.776 414.718 64 413.694 64Z" fill="white"/>
</svg>
