<?xml version="1.0" encoding="utf-8"?>
<!-- Generator: Adobe Illustrator 27.5.0, SVG Export Plug-In . SVG Version: 6.00 Build 0)  -->
<svg version="1.1" xmlns="http://www.w3.org/2000/svg" xmlns:xlink="http://www.w3.org/1999/xlink" x="0px" y="0px"
	 viewBox="0 0 500 500" style="enable-background:new 0 0 500 500;" xml:space="preserve">
<g id="Floor">
	<path id="floor" style="fill:#FAFAFA;" d="M412.281,437.746c-89.626,39.198-234.935,39.198-324.56,0
		c-89.627-39.188-89.627-102.738,0-141.937c89.625-39.189,234.934-39.189,324.56,0C501.906,335.008,501.906,398.558,412.281,437.746
		z"/>
</g>
<g id="Shadows">
	<path id="Shadow_2_" style="fill:#EBEBEB;" d="M434.752,383.349c-19.199,9.151-50.326,9.151-69.525,0
		c-19.199-9.149-19.199-23.986,0-33.137c19.199-9.149,50.326-9.149,69.525,0C453.951,359.363,453.951,374.2,434.752,383.349z"/>
</g>
<g id="Plant">
	<g id="Plants_12_">
		<g id="XMLID_16097_">
			<g id="XMLID_16039_">
				<path id="XMLID_16041_" style="fill:#27DEBF;" d="M94.655,341.065c0,0,0.955-19.174-8.556-32.703
					c-9.511-13.53-21.538-13.807-26.345-11.882c-4.807,1.925-8.487,8.336-1.023,13.841c7.464,5.505,23.389,16.605,25.403,25.409
					L94.655,341.065z"/>
				<path id="XMLID_1_" style="opacity:0.15;" d="M94.655,341.065c0,0,0.955-19.174-8.556-32.703
					c-9.511-13.53-21.538-13.807-26.345-11.882c-4.807,1.925-8.487,8.336-1.023,13.841c7.464,5.505,23.389,16.605,25.403,25.409
					L94.655,341.065z"/>
				<g id="XMLID_16040_">
					<path style="fill:#FFFFFF;" d="M91.161,337.254c-0.233,0-0.441-0.164-0.49-0.401c-5.303-26.155-20.79-33.477-27.202-35.41
						c-0.264-0.08-0.414-0.358-0.334-0.623c0.079-0.264,0.358-0.413,0.623-0.334c6.584,1.985,22.483,9.484,27.894,36.169
						c0.055,0.271-0.12,0.534-0.391,0.589C91.227,337.25,91.193,337.254,91.161,337.254z"/>
				</g>
			</g>
			<g id="XMLID_16035_">
				<path id="XMLID_16038_" style="fill:#27DEBF;" d="M85.734,330.006c-2.118-6.328-4.89-9.333-13.707-8.667
					c-8.817,0.666-7.513,0.558-17.934-3.127c-10.421-3.685-18.201,0.025-19.351,4.055c-1.25,4.38,7.274,7.133,13.504,10.618
					c6.23,3.484,10.35,7.58,8.272,13.285c-1.78,4.888-1.328,9.202,6.228,11.724c6.713,2.241,14.391-1.062,16.626,5.758
					c1.274,3.888,7.31,8.552,13.53,5.6c11.127-9.337,9.394-22.101,3.592-30.936C93.939,334.428,87.006,333.808,85.734,330.006z"/>
				<g id="XMLID_16037_">
					<path style="fill:#FFFFFF;" d="M91.92,358.276c-0.206,0-0.399-0.129-0.472-0.335c-6.558-18.683-37.451-34.888-48.736-36.726
						c-0.272-0.044-0.458-0.301-0.413-0.574c0.044-0.273,0.299-0.457,0.574-0.413c11.459,1.867,42.841,18.357,49.519,37.382
						c0.092,0.26-0.045,0.546-0.306,0.637C92.031,358.268,91.975,358.276,91.92,358.276z"/>
				</g>
				<g id="XMLID_16036_">
					<path style="fill:#FFFFFF;" d="M64.221,348.121c-0.15,0-0.298-0.067-0.396-0.195c-0.168-0.219-0.128-0.532,0.09-0.701
						c0.278-0.214,6.93-5.261,17.028-5.509c0.278,0.014,0.505,0.212,0.512,0.488c0.007,0.276-0.211,0.505-0.488,0.512
						c-9.756,0.24-16.376,5.251-16.441,5.301C64.435,348.087,64.328,348.121,64.221,348.121z"/>
				</g>
			</g>
		</g>
	</g>
</g>
<g id="Photos_1_">
	<g id="Photo_3_">
		<g id="XMLID_44_">
			<g id="XMLID_48_">
				<polygon id="XMLID_63_" style="fill:#F0F0F0;" points="284.735,71.209 284.735,253.248 99.813,360.013 103.985,368.554 
					284.735,264.2 292.818,264.95 292.818,71.994 				"/>
				<g id="XMLID_59_">
					<path id="XMLID_62_" style="fill:#F0F0F0;" d="M247.575,171.42l1.51-2.107l-9.558-5.523v0l-0.066-0.038l-0.004,0.006
						c-1.428-0.806-3.306-0.411-4.248,1.04l-26.339,40.552l-27.291-23.634l1.129-1.691l-9.46-5.464l-0.008,0.012
						c-1.435-0.873-3.348-0.5-4.314,0.95l-69.108,103.74l0.005,74.272l9.479,5.477L279.99,254.986l0.001-52.375L247.575,171.42z"/>
					<path id="XMLID_61_" style="fill:#FAFAFA;" d="M109.301,359.01l-0.001-74.274l69.108-103.74c1.068-1.603,3.3-1.906,4.756-0.645
						l35.188,30.474l26.339-40.551c1.094-1.685,3.453-1.956,4.9-0.563l39.883,38.376v43.764c0,1.941-1.035,3.734-2.716,4.704
						L109.301,359.01z"/>
					<polygon id="XMLID_60_" style="fill:#F0F0F0;" points="218.352,210.825 232.577,223.144 220.13,208.088 					"/>
				</g>
				<g id="XMLID_49_">
					<path id="XMLID_55_" style="fill:#FFFFFF;" d="M298.932,68.244c-0.012-0.105-0.035-0.222-0.058-0.315
						c-0.257-1.436-1.261-2.965-2.439-3.654l-4.436-2.556c-1.389-0.805-3.654-0.805-5.054,0L92.868,173.769
						c-0.7,0.409-1.331,1.097-1.798,1.891c-0.455,0.794-0.736,1.681-0.736,2.486v191.265c0,1.611,1.132,3.572,2.533,4.377
						l4.424,2.556c1.214,0.7,3.093,0.794,4.471,0.268c0.058-0.023,0.117-0.047,0.175-0.07c0.128-0.047,0.268-0.117,0.408-0.198
						l56.156-32.414l137.932-79.635c1.389-0.805,2.521-2.766,2.521-4.377V68.653C298.956,68.512,298.944,68.372,298.932,68.244z
						 M292.818,256.558c0,1.611-1.132,3.572-2.533,4.377L157,337.5l-49.915,29.226c-1.389,0.805-2.521,0.152-2.521-1.459V186.364
						c0-0.805,0.28-1.693,0.735-2.486s1.086-1.494,1.786-1.891l183.199-105.79c1.401-0.817,2.533-0.163,2.533,1.459V256.558z"/>
					<path id="XMLID_54_" style="fill:#F0F0F0;" d="M102.346,376.345c-0.14,0.082-0.28,0.152-0.408,0.198
						c-0.058,0.023-0.117,0.047-0.175,0.07c-1.377,0.525-3.257,0.432-4.471-0.268l-4.424-2.556
						c-1.401-0.805-2.533-2.766-2.533-4.377V178.146c0-0.805,0.28-1.692,0.736-2.486c2.778,1.599,5.988,3.455,9.478,5.474
						c1.541,0.887,3.129,1.798,4.751,2.743c-0.455,0.794-0.735,1.681-0.735,2.486v178.903c0,1.611,1.132,2.264,2.521,1.459
						L102.346,376.345z"/>
					<path id="XMLID_50_" style="fill:#FAFAFA;" d="M298.932,68.244c-0.012-0.105-0.035-0.222-0.058-0.315
						c-0.303-1.062-1.284-1.412-2.439-0.735L102.346,179.255c-0.7,0.397-1.331,1.097-1.798,1.879
						c-0.455,0.794-0.735,1.693-0.735,2.498l0.012,191.254c0,1.377,0.829,2.054,1.938,1.728c0.058-0.023,0.117-0.047,0.175-0.07
						c0.128-0.047,0.268-0.117,0.408-0.198l194.088-112.05c1.389-0.805,2.521-2.766,2.521-4.377V68.653
						C298.956,68.512,298.944,68.372,298.932,68.244z M292.818,256.558c0,1.611-1.132,3.572-2.533,4.377l-183.199,105.79
						c-1.389,0.805-2.521,0.152-2.521-1.459V186.364c0-0.805,0.28-1.693,0.735-2.486s1.086-1.494,1.786-1.891l183.199-105.79
						c1.401-0.817,2.533-0.163,2.533,1.459V256.558z"/>
				</g>
			</g>
			<g id="XMLID_45_">
				<path id="XMLID_47_" style="fill:#F0F0F0;" d="M265.069,125.198l4.794-8.138l-8.206-4.781c-0.001-0.001-0.002-0.001-0.004-0.002
					l-0.006-0.003l0,0c-2.405-1.384-5.724-1.182-9.391,0.935c-7.341,4.238-13.292,14.546-13.292,23.023
					c0,4.18,1.451,7.127,3.798,8.54l-0.003,0.006l0.073,0.043c0.017,0.01,0.034,0.02,0.051,0.029l7.9,4.594l4.576-7.766
					C260.072,137.653,263.8,131.308,265.069,125.198z"/>
				
					<ellipse id="XMLID_46_" transform="matrix(0.5 -0.866 0.866 0.5 14.7633 292.0588)" style="fill:#FAFAFA;" cx="260.31" cy="133.244" rx="18.798" ry="10.853"/>
			</g>
		</g>
	</g>
	<g id="Photo_2_">
		<g id="XMLID_7_">
			<g id="XMLID_28_">
				<polygon id="XMLID_43_" style="fill:#EBEBEB;" points="307.735,84.209 307.735,266.248 122.813,373.013 126.985,381.554 
					307.735,277.2 315.818,277.95 315.818,84.994 				"/>
				<g id="XMLID_39_">
					<path id="XMLID_42_" style="fill:#EBEBEB;" d="M270.575,184.42l1.51-2.107l-9.558-5.523v0l-0.066-0.038l-0.004,0.006
						c-1.428-0.806-3.306-0.411-4.248,1.04l-26.339,40.552l-27.291-23.634l1.129-1.691l-9.46-5.464l-0.008,0.012
						c-1.435-0.873-3.348-0.5-4.314,0.95l-69.108,103.74l0.005,74.272l9.479,5.477L302.99,267.986l0.001-52.375L270.575,184.42z"/>
					<path id="XMLID_41_" style="fill:#F5F5F5;" d="M132.301,372.01l-0.001-74.274l69.108-103.74c1.068-1.603,3.3-1.906,4.756-0.645
						l35.188,30.474l26.339-40.551c1.094-1.685,3.453-1.956,4.9-0.563l39.883,38.376v43.764c0,1.941-1.035,3.734-2.716,4.704
						L132.301,372.01z"/>
					<polygon id="XMLID_40_" style="fill:#EBEBEB;" points="241.352,223.825 255.577,236.144 243.13,221.088 					"/>
				</g>
				<g id="XMLID_29_">
					<path id="XMLID_35_" style="fill:#FAFAFA;" d="M321.932,81.244c-0.012-0.105-0.035-0.222-0.058-0.315
						c-0.257-1.436-1.261-2.965-2.439-3.654l-4.436-2.556c-1.389-0.805-3.654-0.805-5.054,0l-194.076,112.05
						c-0.7,0.409-1.331,1.097-1.798,1.891c-0.455,0.794-0.736,1.681-0.736,2.486v191.265c0,1.611,1.132,3.572,2.533,4.377
						l4.424,2.556c1.214,0.7,3.093,0.794,4.471,0.268c0.058-0.023,0.117-0.047,0.175-0.07c0.128-0.047,0.268-0.117,0.408-0.198
						l56.156-32.414l137.932-79.635c1.389-0.805,2.521-2.766,2.521-4.377V81.653C321.956,81.512,321.944,81.372,321.932,81.244z
						 M315.818,269.558c0,1.611-1.132,3.572-2.533,4.377L180,350.5l-49.915,29.226c-1.389,0.805-2.521,0.152-2.521-1.459V199.364
						c0-0.805,0.28-1.693,0.735-2.486c0.455-0.794,1.086-1.494,1.786-1.891l183.199-105.79c1.401-0.817,2.533-0.163,2.533,1.459
						V269.558z"/>
					<path id="XMLID_34_" style="fill:#F0F0F0;" d="M125.346,389.345c-0.14,0.082-0.28,0.152-0.408,0.198
						c-0.058,0.023-0.117,0.047-0.175,0.07c-1.377,0.525-3.257,0.432-4.471-0.268l-4.424-2.556
						c-1.401-0.805-2.533-2.766-2.533-4.377V191.146c0-0.805,0.28-1.692,0.736-2.486c2.778,1.599,5.988,3.455,9.478,5.474
						c1.541,0.887,3.129,1.798,4.751,2.743c-0.455,0.794-0.735,1.681-0.735,2.486v178.903c0,1.611,1.132,2.264,2.521,1.459
						L125.346,389.345z"/>
					<path id="XMLID_30_" style="fill:#F5F5F5;" d="M321.932,81.244c-0.012-0.105-0.035-0.222-0.058-0.315
						c-0.303-1.062-1.284-1.412-2.439-0.735L125.346,192.255c-0.7,0.397-1.331,1.097-1.798,1.879
						c-0.455,0.794-0.735,1.693-0.735,2.498l0.012,191.254c0,1.377,0.829,2.054,1.938,1.728c0.058-0.023,0.117-0.047,0.175-0.07
						c0.128-0.047,0.268-0.117,0.408-0.198l194.088-112.05c1.389-0.805,2.521-2.766,2.521-4.377V81.653
						C321.956,81.512,321.944,81.372,321.932,81.244z M315.818,269.558c0,1.611-1.132,3.572-2.533,4.377l-183.199,105.79
						c-1.389,0.805-2.521,0.152-2.521-1.459V199.364c0-0.805,0.28-1.693,0.735-2.486c0.455-0.794,1.086-1.494,1.786-1.891
						l183.199-105.79c1.401-0.817,2.533-0.163,2.533,1.459V269.558z"/>
				</g>
			</g>
			<g id="XMLID_9_">
				<path id="XMLID_27_" style="fill:#EBEBEB;" d="M288.069,138.198l4.794-8.137l-8.206-4.781c-0.001-0.001-0.002-0.001-0.004-0.002
					l-0.006-0.003l0,0c-2.405-1.384-5.724-1.182-9.391,0.935c-7.341,4.238-13.292,14.546-13.292,23.023
					c0,4.18,1.451,7.127,3.798,8.54l-0.003,0.006l0.073,0.043c0.017,0.01,0.034,0.02,0.051,0.029l7.9,4.594l4.576-7.766
					C283.072,150.653,286.8,144.308,288.069,138.198z"/>
				
					<ellipse id="XMLID_24_" transform="matrix(0.5 -0.866 0.866 0.5 15.0051 318.4775)" style="fill:#F5F5F5;" cx="283.31" cy="146.244" rx="18.798" ry="10.853"/>
			</g>
		</g>
	</g>
	<g id="Photo_1_">
		<g id="XMLID_4_">
			<g id="XMLID_10_">
				<polygon id="XMLID_26_" style="fill:#E0E0E0;" points="330.735,97.209 330.735,279.248 145.813,386.013 149.985,394.554 
					330.735,290.2 338.818,290.95 338.818,97.994 				"/>
				<g id="XMLID_21_">
					<path id="XMLID_25_" style="fill:#E6E6E6;" d="M293.575,197.42l1.51-2.107l-9.558-5.523v0l-0.066-0.038l-0.004,0.006
						c-1.428-0.806-3.306-0.411-4.248,1.04l-26.339,40.552l-27.291-23.634l1.129-1.691l-9.46-5.464l-0.008,0.012
						c-1.435-0.873-3.348-0.5-4.314,0.95l-69.108,103.74l0.005,74.272l9.479,5.477L325.99,280.986l0.001-52.375L293.575,197.42z"/>
					<path id="XMLID_23_" style="fill:#EBEBEB;" d="M155.301,385.01l-0.001-74.274l69.108-103.74c1.068-1.603,3.3-1.906,4.756-0.645
						l35.188,30.474l26.339-40.551c1.094-1.685,3.453-1.956,4.9-0.563l39.883,38.376v43.764c0,1.941-1.035,3.734-2.716,4.704
						L155.301,385.01z"/>
					<polygon id="XMLID_22_" style="fill:#E6E6E6;" points="264.352,236.825 278.577,249.144 266.13,234.088 					"/>
				</g>
				<g id="XMLID_11_">
					<path id="XMLID_17_" style="fill:#F0F0F0;" d="M344.932,94.244c-0.012-0.105-0.035-0.222-0.058-0.315
						c-0.257-1.436-1.261-2.965-2.439-3.654l-4.436-2.556c-1.389-0.805-3.654-0.805-5.054,0l-194.076,112.05
						c-0.7,0.409-1.331,1.097-1.798,1.891c-0.455,0.794-0.735,1.681-0.735,2.486v191.265c0,1.611,1.132,3.572,2.533,4.377
						l4.424,2.556c1.214,0.7,3.093,0.794,4.471,0.268c0.058-0.023,0.117-0.047,0.175-0.07c0.128-0.047,0.268-0.117,0.408-0.198
						l56.156-32.414l137.932-79.635c1.389-0.805,2.521-2.766,2.521-4.377V94.653C344.956,94.512,344.944,94.372,344.932,94.244z
						 M338.818,282.558c0,1.611-1.132,3.572-2.533,4.377L203,363.5l-49.915,29.226c-1.389,0.805-2.521,0.152-2.521-1.459V212.364
						c0-0.805,0.28-1.693,0.735-2.486c0.455-0.794,1.086-1.494,1.786-1.891l183.199-105.79c1.401-0.817,2.533-0.163,2.533,1.459
						V282.558z"/>
					<path id="XMLID_16_" style="fill:#E0E0E0;" d="M148.346,402.345c-0.14,0.082-0.28,0.152-0.408,0.198
						c-0.059,0.023-0.117,0.047-0.175,0.07c-1.377,0.525-3.257,0.432-4.471-0.268l-4.424-2.556
						c-1.401-0.805-2.533-2.766-2.533-4.377V204.146c0-0.805,0.28-1.692,0.735-2.486c2.778,1.599,5.988,3.455,9.478,5.474
						c1.541,0.887,3.128,1.798,4.751,2.743c-0.455,0.794-0.735,1.681-0.735,2.486v178.903c0,1.611,1.132,2.264,2.521,1.459
						L148.346,402.345z"/>
					<path id="XMLID_12_" style="fill:#EBEBEB;" d="M344.932,94.244c-0.012-0.105-0.035-0.222-0.058-0.315
						c-0.303-1.062-1.284-1.412-2.439-0.735L148.346,205.255c-0.7,0.397-1.331,1.097-1.798,1.879
						c-0.455,0.794-0.735,1.693-0.735,2.498l0.012,191.254c0,1.377,0.829,2.054,1.938,1.728c0.058-0.023,0.117-0.047,0.175-0.07
						c0.128-0.047,0.268-0.117,0.408-0.198l194.088-112.05c1.389-0.805,2.521-2.766,2.521-4.377V94.653
						C344.956,94.512,344.944,94.372,344.932,94.244z M338.818,282.558c0,1.611-1.132,3.572-2.533,4.377l-183.199,105.79
						c-1.389,0.805-2.521,0.152-2.521-1.459V212.364c0-0.805,0.28-1.693,0.735-2.486c0.455-0.794,1.086-1.494,1.786-1.891
						l183.199-105.79c1.401-0.817,2.533-0.163,2.533,1.459V282.558z"/>
				</g>
			</g>
			<g id="XMLID_5_">
				<path id="XMLID_8_" style="fill:#E6E6E6;" d="M311.069,151.198l4.794-8.137l-8.206-4.781c-0.001-0.001-0.002-0.001-0.004-0.002
					l-0.006-0.003l0,0.001c-2.405-1.384-5.724-1.182-9.391,0.935c-7.341,4.238-13.292,14.546-13.292,23.023
					c0,4.18,1.451,7.127,3.798,8.54l-0.003,0.006l0.073,0.043c0.017,0.01,0.034,0.02,0.051,0.029l7.9,4.594l4.576-7.766
					C306.072,163.653,309.8,157.308,311.069,151.198z"/>
				
					<ellipse id="XMLID_6_" transform="matrix(0.5 -0.866 0.866 0.5 15.2468 344.8963)" style="fill:#EBEBEB;" cx="306.31" cy="159.244" rx="18.798" ry="10.853"/>
			</g>
		</g>
	</g>
</g>
<g id="Character">
	<g>
		<g id="Photo">
			<g id="XMLID_766_">
				<g id="XMLID_16066_">
					<polygon id="XMLID_3097_" style="fill:#263238;" points="354.735,111.209 354.735,293.248 169.813,400.013 173.985,408.554 
						354.735,304.2 362.818,304.95 362.818,111.994 					"/>
					<g id="XMLID_3197_">
						<path id="XMLID_3201_" style="fill:#27DEBF;" d="M317.575,211.42l1.51-2.107l-9.558-5.523v0l-0.066-0.038l-0.004,0.006
							c-1.428-0.806-3.306-0.411-4.248,1.04l-26.339,40.552l-27.291-23.634l1.129-1.691l-9.46-5.464l-0.008,0.012
							c-1.435-0.873-3.348-0.5-4.314,0.95l-69.108,103.74l0.005,74.272l9.479,5.477L349.99,294.986l0.001-52.375L317.575,211.42z"/>
						<path id="XMLID_3198_" style="opacity:0.15;" d="M317.575,211.42l1.51-2.107l-9.558-5.523v0l-0.066-0.038l-0.004,0.006
							c-1.428-0.806-3.306-0.411-4.248,1.04l-26.339,40.552l-27.291-23.634l1.129-1.691l-9.46-5.464l-0.008,0.012
							c-1.435-0.873-3.348-0.5-4.314,0.95l-69.108,103.74l0.005,74.272l9.479,5.477L349.99,294.986l0.001-52.375L317.575,211.42z"/>
						<path id="XMLID_3095_" style="fill:#27DEBF;" d="M179.301,399.01l-0.001-74.274l69.108-103.74
							c1.068-1.603,3.3-1.906,4.756-0.645l35.188,30.474l26.339-40.551c1.094-1.685,3.453-1.956,4.9-0.563l39.883,38.376v43.764
							c0,1.941-1.035,3.734-2.716,4.704L179.301,399.01z"/>
						<polygon id="XMLID_3200_" style="opacity:0.15;" points="288.352,250.825 302.577,263.144 290.13,248.088 						"/>
					</g>
					<g id="XMLID_16068_">
						<path id="XMLID_16098_" style="fill:#455A64;" d="M368.932,108.244c-0.012-0.105-0.035-0.222-0.058-0.315
							c-0.257-1.436-1.261-2.965-2.439-3.654l-4.436-2.556c-1.389-0.805-3.654-0.805-5.054,0l-194.076,112.05
							c-0.7,0.409-1.331,1.097-1.798,1.891c-0.455,0.794-0.735,1.681-0.735,2.486v191.265c0,1.611,1.132,3.572,2.533,4.377
							l4.424,2.556c1.214,0.7,3.093,0.794,4.471,0.268c0.058-0.023,0.117-0.047,0.175-0.07c0.128-0.047,0.268-0.117,0.408-0.198
							l56.156-32.414l137.932-79.635c1.389-0.805,2.521-2.766,2.521-4.377V108.653C368.956,108.512,368.944,108.372,368.932,108.244
							z M362.818,296.558c0,1.611-1.132,3.572-2.533,4.377L227,377.5l-49.915,29.226c-1.389,0.805-2.521,0.152-2.521-1.459V226.364
							c0-0.805,0.28-1.693,0.735-2.486c0.455-0.794,1.086-1.494,1.786-1.891l183.199-105.79c1.401-0.817,2.533-0.163,2.533,1.459
							V296.558z"/>
						<path id="XMLID_16083_" style="fill:#263238;" d="M172.346,416.345c-0.14,0.082-0.28,0.152-0.408,0.198
							c-0.059,0.023-0.117,0.047-0.175,0.07c-1.377,0.525-3.257,0.432-4.471-0.268l-4.424-2.556
							c-1.401-0.805-2.533-2.766-2.533-4.377V218.146c0-0.805,0.28-1.692,0.735-2.486c2.778,1.599,5.988,3.455,9.478,5.474
							c1.541,0.887,3.128,1.798,4.751,2.743c-0.455,0.794-0.735,1.681-0.735,2.486v178.903c0,1.611,1.132,2.264,2.521,1.459
							L172.346,416.345z"/>
						<path id="XMLID_16091_" style="fill:#37474F;" d="M368.932,108.244c-0.012-0.105-0.035-0.222-0.058-0.315
							c-0.303-1.062-1.284-1.412-2.439-0.735L172.346,219.255c-0.7,0.397-1.331,1.097-1.798,1.879
							c-0.455,0.794-0.735,1.693-0.735,2.498l0.012,191.254c0,1.377,0.829,2.054,1.938,1.728c0.058-0.023,0.117-0.047,0.175-0.07
							c0.128-0.047,0.268-0.117,0.408-0.198l194.088-112.05c1.389-0.805,2.521-2.766,2.521-4.377V108.653
							C368.956,108.512,368.944,108.372,368.932,108.244z M362.818,296.558c0,1.611-1.132,3.572-2.533,4.377l-183.199,105.79
							c-1.389,0.805-2.521,0.152-2.521-1.459V226.364c0-0.805,0.28-1.693,0.735-2.486c0.455-0.794,1.086-1.494,1.786-1.891
							l183.199-105.79c1.401-0.817,2.533-0.163,2.533,1.459V296.558z"/>
					</g>
				</g>
				<g id="XMLID_924_">
					<g id="XMLID_909_">
						<path id="XMLID_927_" style="fill:#27DEBF;" d="M335.069,165.198l4.794-8.137l-8.206-4.781
							c-0.001-0.001-0.002-0.001-0.004-0.002l-0.006-0.003l0,0.001c-2.405-1.384-5.724-1.182-9.391,0.935
							c-7.341,4.238-13.292,14.546-13.292,23.023c0,4.18,1.451,7.127,3.798,8.54l-0.003,0.006l0.073,0.043
							c0.017,0.01,0.034,0.02,0.051,0.029l7.9,4.594l4.576-7.766C330.072,177.653,333.8,171.308,335.069,165.198z"/>
						<path id="XMLID_2_" style="opacity:0.15;" d="M335.069,165.198l4.794-8.137l-8.206-4.781
							c-0.001-0.001-0.002-0.001-0.004-0.002l-0.006-0.003l0,0.001c-2.405-1.384-5.724-1.182-9.391,0.935
							c-7.341,4.238-13.292,14.546-13.292,23.023c0,4.18,1.451,7.127,3.798,8.54l-0.003,0.006l0.073,0.043
							c0.017,0.01,0.034,0.02,0.051,0.029l7.9,4.594l4.576-7.766C330.072,177.653,333.8,171.308,335.069,165.198z"/>
					</g>
					
						<ellipse id="XMLID_3199_" transform="matrix(0.5 -0.866 0.866 0.5 15.1226 372.6811)" style="fill:#27DEBF;" cx="330.31" cy="173.244" rx="18.798" ry="10.853"/>
				</g>
			</g>
		</g>
		<g id="Character_9_">
			<g id="XMLID_3105_">
				<g id="XMLID_3278_">
					<path id="XMLID_3280_" style="fill:#FFA8A7;" d="M377.767,194.312l-0.886,2.809l-7.925-17.327v22.723
						c0,0,5.663,11.356,8.443,11.356c0.628,0,3.272,1.41,9.18-14.695L377.767,194.312z"/>
					<path id="XMLID_3277_" style="fill:#27DEBF;" d="M388.235,198.7c-6.25,0.494-11.354-3.274-11.354-3.274s2.23-9.814,5.402-17.96
						c3.584-9.208,7.647-10.619,14.001-10.51L388.235,198.7z"/>
					<path id="XMLID_3276_" style="opacity:0.1;" d="M388.617,198.655c-6.25,0.494-11.736-3.229-11.736-3.229
						s2.23-9.814,5.402-17.96c3.584-9.208,7.647-10.619,14.001-10.51L388.617,198.655z"/>
				</g>
				<rect id="XMLID_3214_" x="416.084" y="350.265" style="fill:#FFA8A7;" width="8.775" height="15.022"/>
				<polygon id="XMLID_3213_" style="fill:#FFA8A7;" points="394.435,349.463 385.666,349.765 385.227,333.868 394.435,333.566 				
					"/>
				<path id="XMLID_3212_" style="fill:#37474F;" d="M424.834,233.513c0,8.379-1.481,57.119-1.481,57.119
					c0.204,2.411,2.525,6.698,2.706,15.383c0.262,12.595-0.824,51.761-0.824,51.761s-4.26,2.489-9.77,0.193
					c0,0-7.743-51.462-9.315-63.928c-1.372-10.88-3.7-40.437-3.7-40.437l-4.757,35.519c0,0,1.618,6.489,1.087,13.945
					c-0.41,5.767-3.789,41.472-3.789,41.472s-4.13,2.802-10.132,0.775c0,0-4.434-50.902-4.536-56.192
					c-0.116-6.032,2.918-67.605,2.918-67.605L424.834,233.513z"/>
				<path id="XMLID_3211_" style="fill:#27DEBF;" d="M421.22,172.832c0,0,3.363,3.063,3.363,11.024v17.193l0.251,32.464
					c-12.595,6.639-28.606,7.083-42.043-2.73c0,0,0.75-41.787,0.75-48.622c0-0.285,0.007-0.573,0.02-0.864
					c0.452-9.793,10.059-16.549,19.553-14.107l7.97,2.05l7.985,2.631L421.22,172.832z"/>
				<g id="XMLID_3110_">
					<g id="XMLID_3203_">
						<circle id="XMLID_3210_" style="fill:#263238;" cx="396.538" cy="139.892" r="12.059"/>
						<path id="XMLID_3209_" style="fill:#263238;" d="M417.384,148.466c0,0-1.954,9.181-2.738,10.69
							c-0.784,1.509-2.403,1.937-2.403,1.937l0.137-6.458L417.384,148.466z"/>
						<path id="XMLID_3208_" style="fill:#263238;" d="M414.931,135.314c0,0,2.105-0.361,3.745,1.317
							c1.608,1.645,0.71,6.793-1.293,11.835l-3.681,0.423L414.931,135.314z"/>
						<path id="XMLID_3207_" style="fill:#FFA8A7;" d="M412.599,148.892c0.738,0.441,1.791-0.977,2.701-1.93
							c0.91-0.952,3.882-2.254,5.364,0.87c1.51,3.183-1.309,7.389-3.648,8.123c-4.032,1.266-4.637-1.321-4.637-1.321l-0.298,14.987
							l0,0c-5.013,6.426-18.923,5.884-13.127-0.829l0.011-4.426c0,0-3.653,0.554-5.435,0.279c-2.965-0.458-4.83-2.798-5.729-6.007
							c-1.445-5.155-1.993-9.317-0.768-19.455c1.343-11.112,14.268-11.227,21.247-6.835
							C415.26,136.742,412.599,148.892,412.599,148.892z"/>
						<path id="XMLID_3206_" style="fill:#263238;" d="M412.599,150.134c0.371,0.007,1.783-2.335,2.702-3.171
							c1.273-1.158-0.369-11.648-0.369-11.648s1.223-2.607-1.229-5.306c-1.744-1.92-4.659-2.133-9.635-2.915
							c-2.611-0.41-6.569-1.141-9.176-1.626c-3.114-0.579-5.691-1.191-7.889,0.719c-1.711,1.487-2.447,4.114-1.526,6.185
							c0.216,0.486,0.529,0.924,0.884,1.32c0.63,0.701,1.343,1.253,2.241,1.543c0,0,1.358,1.205,6.081,1.78
							c4.723,0.575,12.079-0.11,13.084-0.248c1.369-0.187,1.662,1.14,2.4,4.766C410.814,144.715,411.351,150.11,412.599,150.134z"/>
						<path id="XMLID_3205_" style="fill:#263238;" d="M414.924,136.13l4.463-2.396c-0.633-1.279-2.146-1.779-3.378-1.117
							C414.776,133.278,414.29,134.851,414.924,136.13z"/>
						<path id="XMLID_3204_" style="fill:#F28F8F;" d="M398.966,164.367c0,0,6.618-1.333,8.932-2.563
							c1.549-0.823,2.824-2.25,3.199-3.165c0,0-0.434,1.964-1.817,3.733c-1.692,2.163-10.314,3.756-10.314,3.756L398.966,164.367z"
							/>
					</g>
					<g id="XMLID_3116_">
						<path id="XMLID_3202_" style="fill:#263238;" d="M400.557,147.237c0,0.761,0.594,1.376,1.326,1.374
							c0.733-0.002,1.326-0.621,1.326-1.382c0-0.761-0.594-1.376-1.326-1.374C401.151,145.858,400.557,146.476,400.557,147.237z"/>
						<path id="XMLID_3181_" style="fill:#263238;" d="M401.964,142.23l2.837,1.566c0.418-0.815,0.122-1.827-0.661-2.259
							C403.356,141.104,402.382,141.415,401.964,142.23z"/>
						<path id="XMLID_3120_" style="fill:#F28F8F;" d="M399.566,156.399l-3.028,1.136c0.3,0.868,1.22,1.317,2.057,1.003
							C399.431,158.225,399.865,157.267,399.566,156.399z"/>
						<path id="XMLID_3119_" style="fill:#263238;" d="M388.73,143.334l2.587-1.993c-0.528-0.741-1.535-0.895-2.249-0.345
							C388.353,141.546,388.202,142.593,388.73,143.334z"/>
						<path id="XMLID_3118_" style="fill:#263238;" d="M389.526,146.86c0,0.761,0.594,1.376,1.327,1.374
							c0.732-0.002,1.326-0.62,1.326-1.382c0-0.761-0.594-1.376-1.326-1.374C390.12,145.48,389.526,146.099,389.526,146.86z"/>
						<polygon id="XMLID_3117_" style="fill:#F28F8F;" points="396.283,145.602 395.848,153.578 391.684,152.158 						"/>
					</g>
				</g>
				<path id="XMLID_3108_" style="fill:#263238;" d="M416.084,360.955V359.7c-0.839,0.366-2.79,7.808-6.272,10.984
					c-2.768,2.525-6.544,5.441-7.504,8.255c-0.999,2.927,5.258,4.543,7.844,4.085c3.005-0.532,8.212-2.648,9.52-4.609
					c1.307-1.961,1.919-4.854,2.982-6.292c1.062-1.437,3.511-3.042,4.085-4.705c0.316-0.914-0.059-2.915-0.503-4.607
					c-0.407-1.552-0.848-3.257-1.377-3.112c-0.002,0.189,0,0.957,0,0.957c-0.637,0.706-2.399,1.407-4.387,1.483
					C419.188,362.189,416.074,361.934,416.084,360.955z"/>
				<path id="XMLID_3107_" style="fill:#263238;" d="M385.573,347.059c-0.456,0.016-0.827,0.658-1.832,1.746
					c-1.215,1.315-3.201,2.733-5.162,3.714c-3.286,1.645-9.674,4.175-12.565,5.477c-1.806,0.814-1.721,2.995,0.146,4.237
					c1.867,1.241,6.374,2.136,11.787,0.926c2.948-0.659,6.786-3.383,9.216-3.236c2.429,0.147,6.975,0.112,8.768-1.124
					c1.793-1.236,1.076-3.876,0.569-6.144c-0.553-2.476-1.245-6.336-2.064-6.167v0.853c-1.055,1.598-6.499,2.248-8.816,1.072
					L385.573,347.059z"/>
				<path id="XMLID_3106_" style="fill:#263238;" d="M402.449,253.603c0,0-7.013-1.976-12.219-7.006c0,0,2.358,4.415,9.369,8.523
					l-1.5,30.963L402.449,253.603z"/>
			</g>
			<g id="XMLID_3096_">
				<g id="XMLID_3102_">
					<g id="XMLID_3103_">
						<path id="XMLID_3104_" style="fill:#FFA8A7;" d="M409.161,226.499c3.993-2.064,5.391-2.802,7.204-8.01
							c13.04-37.443,8.702-42.338,2.228-44.665l-4.891,9.925l-8.671,31.073c-5.774,4.922-17.758,10.645-24.338,12.084
							c-1.166,0.255-3.446-0.085-4.572-0.48c-2.855-1.003-4.306-0.811-7.164-1.579v3.335c0,0-3.334-0.065-7.701-0.878
							c-5.918-1.103-8.037,0.862-3.174,6.811c2.748,3.362,8.142,4.662,16.011,3.828c3.212-0.34,8.021-1.787,11.898-3.1
							C396.087,231.425,403.893,229.223,409.161,226.499z"/>
					</g>
				</g>
				<g id="XMLID_3100_">
					<path id="XMLID_3101_" style="fill:#27DEBF;" d="M419.069,171.871c4.49,1.224,7.543,5.125,7.03,12.298
						c-0.461,6.44-3.075,15.619-4.486,22.154c0,0-8.326,0.103-13.825-4.24c1.371-5.784,2.703-11.819,3.726-17.046
						C413.452,178.103,416.431,171.662,419.069,171.871z"/>
				</g>
				<g id="XMLID_3098_" style="opacity:0.05;">
					<path id="XMLID_3099_" d="M419.069,171.871c4.49,1.224,7.543,5.125,7.03,12.298c-0.461,6.44-3.075,15.619-4.486,22.154
						c0,0-8.326,0.103-13.825-4.24c1.371-5.784,2.703-11.819,3.726-17.046C413.452,178.103,416.431,171.662,419.069,171.871z"/>
				</g>
			</g>
		</g>
	</g>
</g>
<g id="Cloud">
	<g id="Clouds_2_">
		<path id="XMLID_3290_" style="fill:#F5F5F5;" d="M159.684,75.824l-11.957,6.904c0.059-0.534,0.101-1.064,0.101-1.583V77.68
			c0-6.164-4.328-8.663-9.666-5.581c-2.162,1.248-4.151,3.226-5.761,5.54c-0.874-7.751-6.956-10.639-14.342-6.374
			c-7.987,4.611-14.462,15.825-14.462,25.048v5.182c0,2.389,0.442,4.401,1.224,6.004l-9.932,5.734
			c-2.961,1.71-5.362,5.868-5.362,9.287c0,3.419,2.4,4.805,5.362,3.096l64.795-37.41c2.961-1.71,5.362-5.868,5.362-9.287
			C165.046,75.5,162.645,74.114,159.684,75.824z"/>
	</g>
</g>
</svg>
