<svg width="556" height="74" viewBox="0 0 556 74" fill="none" xmlns="http://www.w3.org/2000/svg">
<path d="M0.744019 73V69.448H1.80002C3.20802 69.448 4.45602 69.288 5.54402 68.968C6.69602 68.648 7.62402 68.136 8.32802 67.432C9.03202 66.664 9.38402 65.64 9.38402 64.36V11.848C9.38402 10.888 9.03202 10.184 8.32802 9.73602C7.62402 9.22402 6.69602 8.87202 5.54402 8.68003C4.45602 8.48803 3.20802 8.39202 1.80002 8.39202H0.744019V4.84002H21.96L41.736 66.184L39.912 66.088L60.552 4.84002H81.576V8.39202H80.808C79.4 8.39202 78.088 8.48803 76.872 8.68003C75.72 8.87202 74.76 9.22402 73.992 9.73602C73.288 10.184 72.936 10.888 72.936 11.848V65.992C72.936 66.888 73.288 67.592 73.992 68.104C74.696 68.616 75.656 68.968 76.872 69.16C78.088 69.352 79.4 69.448 80.808 69.448H81.576V73H55.752V69.448H56.616C57.768 69.448 58.888 69.416 59.976 69.352C61.128 69.288 62.088 69.192 62.856 69.064C63.624 68.872 64.008 68.68 64.008 68.488V5.80002L64.968 5.99203L42.024 73.192H36.168L13.224 6.08803L14.28 5.99203V67.144C14.28 67.72 14.632 68.2 15.336 68.584C16.04 68.968 16.968 69.224 18.12 69.352C19.272 69.416 20.456 69.448 21.672 69.448H22.824V73H0.744019Z" fill="white"/>
<path d="M139.175 48.424C139.175 53.416 138.087 57.832 135.911 61.672C133.799 65.512 130.855 68.52 127.079 70.696C123.303 72.872 118.983 73.96 114.119 73.96C109.255 73.96 104.935 72.904 101.159 70.792C97.3833 68.616 94.4073 65.608 92.2313 61.768C90.0553 57.864 88.9673 53.416 88.9673 48.424C88.9673 44.648 89.5753 41.192 90.7913 38.056C92.0713 34.92 93.8313 32.232 96.0713 29.992C98.3753 27.688 101.031 25.896 104.039 24.616C107.111 23.336 110.471 22.696 114.119 22.696C117.767 22.696 121.095 23.336 124.103 24.616C127.175 25.832 129.831 27.592 132.071 29.896C134.375 32.2 136.135 34.92 137.351 38.056C138.567 41.192 139.175 44.648 139.175 48.424ZM97.9913 48.424C97.9913 52.648 98.5993 56.392 99.8153 59.656C101.095 62.92 102.919 65.448 105.287 67.24C107.719 69.032 110.663 69.928 114.119 69.928C117.575 69.928 120.487 69.032 122.855 67.24C125.223 65.448 127.015 62.92 128.231 59.656C129.511 56.392 130.151 52.648 130.151 48.424C130.151 44.072 129.511 40.264 128.231 37C127.015 33.736 125.223 31.208 122.855 29.416C120.487 27.624 117.575 26.728 114.119 26.728C110.663 26.728 107.719 27.656 105.287 29.512C102.919 31.304 101.095 33.832 99.8153 37.096C98.5993 40.296 97.9913 44.072 97.9913 48.424Z" fill="white"/>
<path d="M184.475 29.128C184.475 28.68 184.091 28.328 183.323 28.072C182.555 27.752 181.595 27.528 180.443 27.4C179.291 27.208 178.139 27.112 176.987 27.112H176.795V23.656H194.651V27.112H194.459C193.563 27.112 192.667 27.24 191.771 27.496C190.939 27.752 190.203 28.2 189.563 28.84C188.923 29.48 188.379 30.344 187.931 31.432L172.091 73H165.179L148.667 30.184C148.347 29.288 147.899 28.648 147.323 28.264C146.747 27.816 146.043 27.528 145.211 27.4C144.379 27.208 143.451 27.112 142.427 27.112H142.331V23.656H164.699V27.112H164.507C163.355 27.112 162.139 27.144 160.859 27.208C159.643 27.272 158.619 27.368 157.787 27.496C156.955 27.56 156.539 27.72 156.539 27.976L171.419 67.72L169.979 67.816L184.475 29.128Z" fill="white"/>
<path d="M210.543 12.232C208.879 12.232 207.471 11.72 206.319 10.696C205.167 9.60803 204.591 8.16803 204.591 6.37603C204.591 4.58402 205.167 3.17602 206.319 2.15203C207.471 1.12803 208.879 0.616028 210.543 0.616028C212.207 0.616028 213.583 1.12803 214.671 2.15203C215.823 3.17602 216.399 4.58402 216.399 6.37603C216.399 8.16803 215.823 9.60803 214.671 10.696C213.583 11.72 212.207 12.232 210.543 12.232ZM215.055 23.656V66.088C215.055 67.496 215.759 68.424 217.167 68.872C218.639 69.32 220.463 69.544 222.639 69.544H222.831V73H198.735V69.544H198.927C201.103 69.544 202.895 69.32 204.303 68.872C205.775 68.424 206.511 67.496 206.511 66.088V31.624C206.511 30.216 205.935 29.256 204.783 28.744C203.695 28.168 202.031 27.688 199.791 27.304L198.735 27.112V23.656H215.055Z" fill="white"/>
<path d="M237.576 48.808C237.576 52.136 237.992 55.144 238.824 57.832C239.72 60.456 240.936 62.664 242.472 64.456C244.008 66.248 245.8 67.624 247.848 68.584C249.896 69.48 252.136 69.928 254.568 69.928C257.192 69.928 259.464 69.48 261.384 68.584C263.368 67.624 265.064 66.376 266.472 64.84C267.88 63.304 269.096 61.672 270.12 59.944L273.384 62.824C272.232 65.064 270.696 67.016 268.776 68.68C266.92 70.344 264.776 71.656 262.344 72.616C259.912 73.512 257.16 73.96 254.088 73.96C249.48 73.96 245.256 72.936 241.416 70.888C237.64 68.776 234.6 65.832 232.296 62.056C230.056 58.216 228.936 53.736 228.936 48.616C228.936 43.432 229.96 38.92 232.008 35.08C234.12 31.176 236.968 28.136 240.552 25.96C244.136 23.784 248.136 22.696 252.552 22.696C255.88 22.696 258.856 23.272 261.48 24.424C264.104 25.512 266.312 27.144 268.104 29.32C269.96 31.432 271.368 34.088 272.328 37.288C273.288 40.488 273.768 44.2 273.768 48.424H235.368L235.272 44.584H267.72L265.032 46.024C264.968 42.824 264.68 40.04 264.168 37.672C263.656 35.24 262.856 33.224 261.768 31.624C260.744 29.96 259.464 28.744 257.928 27.976C256.392 27.144 254.6 26.728 252.552 26.728C250.376 26.728 248.36 27.24 246.504 28.264C244.712 29.224 243.144 30.664 241.8 32.584C240.456 34.504 239.4 36.84 238.632 39.592C237.928 42.28 237.576 45.352 237.576 48.808Z" fill="white"/>
<path d="M329.863 4.84002V8.39202H328.903C326.983 8.39202 325.191 8.52003 323.527 8.77603C321.863 9.03203 321.031 9.54403 321.031 10.312V68.776H334.951C337.703 68.776 339.911 68.616 341.575 68.296C343.303 67.976 344.615 67.464 345.511 66.76C346.407 65.992 346.919 64.968 347.047 63.688L348.487 51.592H352.711V73H303.463V69.448H304.231C306.407 69.448 308.263 69.224 309.799 68.776C311.335 68.328 312.103 67.4 312.103 65.992V11.848C312.103 10.44 311.335 9.51203 309.799 9.06403C308.263 8.61603 306.407 8.39202 304.231 8.39202H303.463V4.84002H329.863Z" fill="white"/>
<path d="M371.793 12.232C370.129 12.232 368.721 11.72 367.569 10.696C366.417 9.60803 365.841 8.16803 365.841 6.37603C365.841 4.58402 366.417 3.17602 367.569 2.15203C368.721 1.12803 370.129 0.616028 371.793 0.616028C373.457 0.616028 374.833 1.12803 375.921 2.15203C377.073 3.17602 377.649 4.58402 377.649 6.37603C377.649 8.16803 377.073 9.60803 375.921 10.696C374.833 11.72 373.457 12.232 371.793 12.232ZM376.305 23.656V66.088C376.305 67.496 377.009 68.424 378.417 68.872C379.889 69.32 381.713 69.544 383.889 69.544H384.081V73H359.985V69.544H360.177C362.353 69.544 364.145 69.32 365.553 68.872C367.025 68.424 367.761 67.496 367.761 66.088V31.624C367.761 30.216 367.185 29.256 366.033 28.744C364.945 28.168 363.281 27.688 361.041 27.304L359.985 27.112V23.656H376.305Z" fill="white"/>
<path d="M421.471 60.904C421.471 59.432 421.119 58.216 420.415 57.256C419.711 56.296 418.719 55.496 417.439 54.856C416.223 54.216 414.847 53.64 413.311 53.128C411.775 52.616 410.111 52.104 408.319 51.592C406.463 51.08 404.575 50.472 402.655 49.768C400.735 49.064 398.975 48.168 397.375 47.08C395.839 45.992 394.591 44.584 393.631 42.856C392.671 41.128 392.191 38.952 392.191 36.328C392.191 33.704 392.863 31.368 394.207 29.32C395.615 27.272 397.631 25.672 400.255 24.52C402.879 23.304 406.015 22.696 409.663 22.696C412.351 22.696 414.751 22.92 416.863 23.368C418.975 23.816 420.735 24.392 422.143 25.096C423.615 25.736 424.703 26.344 425.407 26.92V36.424H417.727V27.112C418.367 27.048 418.911 27.176 419.359 27.496C419.807 27.816 420.191 28.232 420.511 28.744C420.831 29.256 421.023 29.768 421.087 30.28C421.215 30.728 421.215 31.112 421.087 31.432C420.383 30.536 419.487 29.736 418.399 29.032C417.311 28.264 416.031 27.688 414.559 27.304C413.151 26.92 411.519 26.728 409.663 26.728C406.015 26.728 403.327 27.56 401.599 29.224C399.935 30.824 399.103 32.808 399.103 35.176C399.103 36.776 399.487 38.12 400.255 39.208C401.023 40.232 402.047 41.064 403.327 41.704C404.671 42.344 406.143 42.92 407.743 43.432C409.407 43.88 411.103 44.36 412.831 44.872C414.751 45.384 416.639 45.992 418.495 46.696C420.351 47.4 422.047 48.264 423.583 49.288C425.119 50.312 426.335 51.624 427.231 53.224C428.127 54.76 428.575 56.68 428.575 58.984C428.575 61.864 427.807 64.424 426.271 66.664C424.799 68.904 422.655 70.696 419.839 72.04C417.087 73.32 413.759 73.96 409.855 73.96C406.719 73.96 403.935 73.672 401.503 73.096C399.071 72.584 396.927 71.88 395.071 70.984C393.215 70.088 391.615 69.16 390.271 68.2V58.12H398.335V69.64C397.567 69.256 396.959 68.872 396.511 68.488C396.063 68.04 395.743 67.624 395.551 67.24C395.423 66.792 395.391 66.376 395.455 65.992C395.519 65.544 395.679 65.064 395.935 64.552C396.831 65.768 397.951 66.76 399.295 67.528C400.703 68.296 402.303 68.904 404.095 69.352C405.887 69.736 407.775 69.928 409.759 69.928C412.255 69.928 414.367 69.576 416.095 68.872C417.823 68.104 419.135 67.048 420.031 65.704C420.991 64.296 421.471 62.696 421.471 60.904Z" fill="white"/>
<path d="M433.532 27.688V24.04H433.82C435.868 24.04 437.564 23.848 438.908 23.464C440.316 23.016 441.372 22.344 442.076 21.448C442.844 20.552 443.26 19.304 443.324 17.704L447.644 23.656H463.772V27.688H433.532ZM450.236 58.216C450.236 61.032 450.556 63.272 451.196 64.936C451.9 66.6 452.892 67.816 454.172 68.584C455.452 69.288 456.892 69.64 458.492 69.64C460.028 69.64 461.372 69.48 462.524 69.16C463.74 68.776 464.604 68.488 465.116 68.296V72.424C464.54 72.68 463.836 72.936 463.004 73.192C462.172 73.448 461.276 73.64 460.316 73.768C459.42 73.896 458.428 73.96 457.34 73.96C454.524 73.96 451.9 73.48 449.468 72.52C447.1 71.496 445.212 69.832 443.804 67.528C442.396 65.224 441.692 62.12 441.692 58.216V24.04L442.94 23.56L443.612 10.888H450.236V58.216Z" fill="white"/>
<path d="M478.982 48.808C478.982 52.136 479.398 55.144 480.23 57.832C481.126 60.456 482.342 62.664 483.878 64.456C485.414 66.248 487.206 67.624 489.254 68.584C491.302 69.48 493.542 69.928 495.974 69.928C498.598 69.928 500.87 69.48 502.79 68.584C504.774 67.624 506.47 66.376 507.878 64.84C509.286 63.304 510.502 61.672 511.526 59.944L514.79 62.824C513.638 65.064 512.102 67.016 510.182 68.68C508.326 70.344 506.182 71.656 503.75 72.616C501.318 73.512 498.566 73.96 495.494 73.96C490.886 73.96 486.662 72.936 482.822 70.888C479.046 68.776 476.006 65.832 473.702 62.056C471.462 58.216 470.342 53.736 470.342 48.616C470.342 43.432 471.366 38.92 473.414 35.08C475.526 31.176 478.374 28.136 481.958 25.96C485.542 23.784 489.542 22.696 493.958 22.696C497.286 22.696 500.262 23.272 502.886 24.424C505.51 25.512 507.718 27.144 509.51 29.32C511.366 31.432 512.774 34.088 513.734 37.288C514.694 40.488 515.174 44.2 515.174 48.424H476.774L476.678 44.584H509.126L506.438 46.024C506.374 42.824 506.086 40.04 505.574 37.672C505.062 35.24 504.262 33.224 503.174 31.624C502.15 29.96 500.87 28.744 499.334 27.976C497.798 27.144 496.006 26.728 493.958 26.728C491.782 26.728 489.766 27.24 487.91 28.264C486.118 29.224 484.55 30.664 483.206 32.584C481.862 34.504 480.806 36.84 480.038 39.592C479.334 42.28 478.982 45.352 478.982 48.808Z" fill="white"/>
<path d="M555.295 22.984V31.24C554.911 31.112 554.399 31.016 553.759 30.952C553.183 30.824 552.543 30.728 551.839 30.664C551.199 30.536 550.527 30.472 549.823 30.472C548.223 30.472 546.815 30.728 545.599 31.24C544.447 31.688 543.359 32.392 542.335 33.352C541.375 34.248 540.511 35.4 539.743 36.808C538.975 38.216 538.143 39.912 537.247 41.896L536.671 37.48C537.823 34.472 539.135 31.88 540.607 29.704C542.143 27.464 543.871 25.736 545.791 24.52C547.711 23.304 549.823 22.696 552.127 22.696C552.831 22.696 553.439 22.728 553.951 22.792C554.527 22.792 554.975 22.856 555.295 22.984ZM522.079 73V69.544H522.175C524.351 69.544 526.175 69.32 527.647 68.872C529.119 68.424 529.855 67.496 529.855 66.088V31.624C529.855 30.664 529.599 29.928 529.087 29.416C528.575 28.904 527.807 28.488 526.783 28.168C525.823 27.848 524.607 27.56 523.135 27.304L522.079 27.112V23.656H537.631V37.192L538.399 36.328V67.72C538.399 68.232 538.783 68.616 539.551 68.872C540.319 69.128 541.279 69.32 542.431 69.448C543.647 69.512 544.831 69.544 545.983 69.544H547.807V73H522.079Z" fill="white"/>
</svg>
