<?xml version="1.0" encoding="utf-8"?>
<!-- Generator: Adobe Illustrator 27.5.0, SVG Export Plug-In . SVG Version: 6.00 Build 0)  -->
<svg version="1.1" xmlns="http://www.w3.org/2000/svg" xmlns:xlink="http://www.w3.org/1999/xlink" x="0px" y="0px"
	 viewBox="0 0 500 500" style="enable-background:new 0 0 500 500;" xml:space="preserve">
<g id="BACKGROUND">
	<rect x="-0.167" y="0.25" style="fill:#A3E5DB;" width="499.999" height="500"/>
</g>
<g id="OBJECTS">
	<g id="ILLUSTRATION">
		<g>
			<g id="character">
				<path style="fill-rule:evenodd;clip-rule:evenodd;" d="M242.735,345.128c-14.873,0.466-31.382-0.917-47.891-2.977
					c-13.569-1.691-26.306-5.76-38.383-11.904c-5.038-2.563-9.992-5.448-13.789-9.96c-4.895-5.818-5.437-12.221-3.02-19.032
					c2.458-6.933,7.386-12.027,13.375-15.99c9.701-6.42,20.339-10.571,31.934-12.038c1.463-0.185,2.222-0.763,2.855-2.095
					c11.622-24.459,30.838-39.268,57.427-43.963c9.097-1.606,18.28-0.118,27.103,3.039c20.741,7.421,35.777,21.06,45.023,41.042
					c0.655,1.415,1.475,1.972,2.98,2.212c11.821,1.868,22.721,6.139,32.318,13.313c2.927,2.188,5.666,4.899,7.756,7.887
					c7.772,11.11,6.395,19.631-2.645,28.26c-3.841,3.666-8.31,6.326-13.164,8.405c-8.793,3.766-17.863,6.726-27.286,8.289
					c-7.127,1.186-14.359,1.795-21.565,2.433c-12.604,1.119-25.219,2.154-37.843,3.029
					C253.47,345.386,248.977,345.128,242.735,345.128z M249.079,342.61c4.942,0,9.909,0.309,14.824-0.062
					c12.207-0.922,24.417-1.935,36.576-3.336c8.577-0.987,17.076-2.677,25.614-4.028c1.405-0.222,1.963-0.825,1.793-2.347
					c-0.927-8.3-1.506-16.646-2.703-24.905c-1.267-8.742-3.516-17.292-6.589-25.602c-0.368-0.994-0.798-1.466-2.026-1.38
					c-16.97,1.189-33.944,2.302-50.914,3.472c-0.775,0.056-1.575,0.396-2.273,0.771c-2.173,1.165-4.183,2.737-6.468,3.565
					c-7.415,2.688-14.437,1.689-21.027-2.72c-1.087-0.728-2.583-1.188-3.893-1.19c-14.837-0.041-29.68,0.209-44.462-1.434
					c-1.123-0.124-1.539,0.311-1.864,1.315c-5.161,15.836-7.972,32.063-8.108,48.73c-0.031,3.695-0.072,2.991,2.887,3.702
					c11.941,2.872,24.132,4.188,36.334,5.037C227.515,342.948,249.076,342.806,249.079,342.61z M174.051,335.313
					c0.515-20.854,3.91-40.682,11.627-59.781c-0.578,0-0.983-0.049-1.373,0.007c-10.417,1.501-20.038,5.245-28.892,10.814
					c-6.012,3.783-11.038,8.676-13.617,15.533c-2.426,6.458-1.501,12.35,3.355,17.458c4.538,4.775,10.134,8.02,16.007,10.763
					C165.294,332.039,169.627,333.545,174.051,335.313z M319.409,275.551c7.772,18.726,10.735,38.036,11.777,57.928
					c0.974-0.254,1.716-0.382,2.41-0.638c3.361-1.239,6.726-2.476,10.062-3.782c6.286-2.462,11.395-6.519,15.619-11.728
					c4.391-5.411,4.942-11.223,1.811-17.446c-2.215-4.403-5.395-7.988-9.247-10.971c-8.196-6.345-17.602-10.079-27.586-12.493
					C322.796,276.069,321.295,275.886,319.409,275.551z M298.717,250.539c-0.18-0.421-0.202-0.549-0.275-0.628
					c-0.24-0.26-0.491-0.507-0.748-0.749c-7.484-7.026-16.081-12.176-25.74-15.678c-8.756-3.176-17.767-4.498-26.902-3.009
					c-15.822,2.579-29.286,9.938-40.454,21.456c-0.512,0.527-0.985,1.094-1.658,1.846c0.559,0.099,0.829,0.192,1.097,0.189
					c8.003-0.068,16.007-0.117,24.007-0.274c0.651-0.014,1.393-0.682,1.909-1.223c1.376-1.434,2.473-3.188,3.999-4.42
					c5.106-4.122,11.069-5.542,17.539-4.945c6.233,0.575,11.549,2.975,15.618,7.896c0.47,0.567,1.434,1.039,2.162,1.028
					c4.176-0.067,8.352-0.255,12.523-0.477C287.366,251.255,292.932,250.889,298.717,250.539z M316.858,278.988
					c0-0.665,0.051-0.854-0.007-0.997c-3.593-9.032-8.275-17.41-14.964-24.545c-0.47-0.502-1.435-0.807-2.147-0.771
					c-9.63,0.489-19.258,1.054-28.885,1.608c-0.436,0.026-0.866,0.13-1.512,0.23c5.033,9.67,3.523,18.732-2.341,27.927
					C283.969,281.266,300.423,280.128,316.858,278.988z M249.017,245.392c-14-0.523-21.27,10.634-21.059,21.067
					c0.267,13.151,8.67,21.098,21.008,21.141c12.311,0.042,20.797-7.849,21.149-21.001
					C270.393,256.242,263.193,244.845,249.017,245.392z M187.062,281.028c14.812,1.793,29.405,1.692,44.18,1.523
					c-5.644-8.373-7.495-17.011-3.361-26.331c-0.364-0.104-0.476-0.164-0.586-0.162c-8.472,0.031-16.943,0.049-25.413,0.15
					c-0.64,0.007-1.466,0.473-1.872,0.989c-1.381,1.753-2.646,3.601-3.897,5.451C192.299,268.288,189.618,274.479,187.062,281.028z"
					/>
				<path style="fill-rule:evenodd;clip-rule:evenodd;" d="M328.697,125.875c0.282,8.483-0.554,16.859-3.848,24.749
					c-6.978,16.724-19.186,27.748-36.617,32.878c-6.416,1.888-12.966,2.946-19.672,2.793c-1.116-0.025-1.72,0.385-2.231,1.288
					c-4.461,7.884-8.925,15.766-13.452,23.614c-0.454,0.786-1.396,1.912-1.994,1.844c-0.796-0.09-1.698-1.068-2.173-1.887
					c-4.594-7.943-9.087-15.946-13.693-23.881c-0.306-0.528-1.307-0.924-1.982-0.922c-9.194,0.049-18.131-1.529-26.477-5.287
					c-18.644-8.395-30.032-22.662-33.05-43.057c-1.446-9.768-1.577-19.607,1.236-29.242c4.044-13.858,11.767-25.357,22.193-35.269
					c10.155-9.652,22.524-14.314,35.933-16.711c5.834-1.042,11.782-1.997,17.678-1.989c6.068,0.009,12.158,1.077,18.197,1.967
					c9.658,1.425,18.838,4.594,27.046,9.794c9.515,6.027,16.939,14.307,22.883,23.909c5.31,8.581,8.992,17.73,9.989,27.826
					C328.91,120.797,328.697,123.347,328.697,125.875z M250.811,207.931c1.892-3.403,3.617-6.614,5.444-9.769
					c2.596-4.479,5.365-8.863,7.848-13.404c0.771-1.41,1.531-2.049,3.101-1.926c5.989,0.471,11.85-0.331,17.661-1.769
					c16.66-4.121,28.816-13.904,36.03-29.406c5.216-11.209,5.683-23.249,4.232-35.323c-1.176-9.782-5.337-18.489-10.789-26.592
					c-6.615-9.832-14.768-18.077-25.595-23.187c-16.477-7.777-33.802-10.144-51.802-7.276c-12.709,2.024-24.705,5.766-34.881,14.167
					c-11.151,9.205-19.039,20.601-23.634,34.265c-3.091,9.184-2.986,18.644-1.958,28.135c0.875,8.079,3.203,15.717,7.779,22.471
					c11.093,16.377,26.928,23.979,46.411,24.623c1.643,0.055,3.294,0.047,4.922,0.224c0.546,0.061,1.244,0.483,1.522,0.949
					c2.637,4.386,5.222,8.803,7.771,13.24C246.858,200.804,248.773,204.294,250.811,207.931z"/>
				<path style="fill-rule:evenodd;clip-rule:evenodd;fill:#F9E280;" d="M216.779,342.199c-12.202-0.85-24.393-2.165-36.334-5.037
					c-2.958-0.711-2.918-0.007-2.887-3.702c0.137-16.668,2.947-32.895,8.108-48.73c0.326-1.004,0.742-1.439,1.864-1.315
					c14.782,1.643,29.624,1.393,44.462,1.434c1.31,0.003,2.806,0.462,3.893,1.19c6.59,4.409,13.612,5.407,21.027,2.72
					c2.285-0.828,4.295-2.4,6.468-3.565c0.698-0.374,1.498-0.715,2.273-0.771c16.97-1.17,33.944-2.282,50.914-3.472
					c1.229-0.086,1.658,0.386,2.026,1.38c3.073,8.31,5.322,16.86,6.589,25.602c1.197,8.259,1.776,16.605,2.703,24.905
					c0.17,1.522-0.388,2.125-1.793,2.347c-8.538,1.352-17.037,3.041-25.614,4.028c-12.159,1.4-24.369,2.414-36.576,3.336
					C258.988,342.92,227.515,342.948,216.779,342.199z M292.233,335.136c3.969,0.172,6.497-1.989,8.497-5.071
					c2.266-3.492,1.382-7.4-1.961-9.889c-4.516-3.36-11.299-2.243-15.011,0.613c-3.295,2.532-3.819,7.061-1.026,9.944
					C285.294,333.377,288.515,334.883,292.233,335.136z M210.137,336.867c2.921,0.164,5.351-1.161,7.708-2.62
					c2.316-1.434,4.074-3.383,3.829-6.276c-0.254-2.992-1.824-5.206-4.63-6.58c-2.689-1.318-5.501-1.774-8.391-1.406
					c-3.798,0.482-8.221,3.613-8.006,8.157C200.854,332.533,205.439,336.829,210.137,336.867z M219.525,302.272
					c-0.216-1.337-0.253-2.844-0.719-4.203c-1.104-3.224-4.941-3.984-7.228-1.443c-0.757,0.841-1.55,1.99-1.616,3.041
					c-0.144,2.256-0.073,4.588,0.374,6.796c0.471,2.326,2.025,3.291,4.187,3.278c2.236-0.014,3.789-1.09,4.41-3.332
					C219.289,305.128,219.323,303.756,219.525,302.272z M296.543,302.345c-0.216-1.331-0.252-2.899-0.74-4.31
					c-1.086-3.141-4.838-3.929-7.112-1.503c-0.809,0.862-1.637,2.074-1.714,3.179c-0.16,2.25-0.065,4.587,0.392,6.79
					c0.482,2.322,2.04,3.269,4.214,3.241c2.228-0.027,3.76-1.118,4.382-3.37C296.303,305.144,296.341,303.832,296.543,302.345z"/>
				<path style="fill-rule:evenodd;clip-rule:evenodd;fill:#323232;" d="M174.051,335.313c-4.424-1.768-8.756-3.273-12.892-5.206
					c-5.873-2.743-11.469-5.987-16.007-10.763c-4.857-5.108-5.782-11-3.355-17.458c2.579-6.857,7.604-11.75,13.617-15.533
					c8.854-5.569,18.475-9.313,28.892-10.814c0.39-0.056,0.795-0.007,1.373-0.007C177.961,294.631,174.565,314.458,174.051,335.313z
					"/>
				<path style="fill-rule:evenodd;clip-rule:evenodd;fill:#323232;" d="M319.409,275.551c1.886,0.335,3.387,0.518,4.846,0.87
					c9.984,2.414,19.39,6.148,27.586,12.493c3.853,2.982,7.032,6.567,9.247,10.971c3.132,6.224,2.58,12.035-1.811,17.446
					c-4.225,5.209-9.333,9.266-15.619,11.728c-3.336,1.307-6.7,2.543-10.062,3.782c-0.694,0.256-1.436,0.384-2.41,0.638
					C330.145,313.587,327.182,294.276,319.409,275.551z"/>
				<path style="fill-rule:evenodd;clip-rule:evenodd;fill:#F9E280;" d="M298.717,250.539c-5.785,0.35-11.351,0.716-16.922,1.013
					c-4.172,0.223-8.348,0.41-12.523,0.477c-0.728,0.011-1.692-0.461-2.162-1.028c-4.069-4.922-9.385-7.321-15.618-7.896
					c-6.47-0.597-12.433,0.823-17.539,4.945c-1.527,1.231-2.624,2.985-3.999,4.42c-0.516,0.541-1.258,1.209-1.909,1.223
					c-8,0.157-16.004,0.206-24.007,0.274c-0.268,0.003-0.538-0.091-1.097-0.189c0.673-0.752,1.146-1.318,1.658-1.846
					c11.168-11.518,24.632-18.877,40.454-21.456c9.135-1.489,18.146-0.167,26.902,3.009c9.659,3.502,18.256,8.651,25.74,15.678
					c0.257,0.242,0.508,0.489,0.748,0.749C298.515,249.99,298.537,250.118,298.717,250.539z"/>
				<path style="fill-rule:evenodd;clip-rule:evenodd;fill:#6C6C6C;" d="M316.858,278.988c-16.436,1.14-32.89,2.277-49.855,3.452
					c5.864-9.194,7.374-18.257,2.341-27.927c0.646-0.1,1.076-0.203,1.512-0.23c9.627-0.555,19.255-1.119,28.885-1.608
					c0.713-0.036,1.678,0.269,2.147,0.771c6.689,7.135,11.371,15.513,14.964,24.545
					C316.909,278.135,316.858,278.323,316.858,278.988z"/>
				<path style="fill-rule:evenodd;clip-rule:evenodd;fill:#959595;" d="M249.017,245.392c14.177-0.547,21.376,10.851,21.099,21.207
					c-0.353,13.152-8.839,21.043-21.149,21.001c-12.338-0.043-20.741-7.989-21.008-21.141
					C227.746,256.025,235.016,244.868,249.017,245.392z M249.173,277.211c5.867,0.028,10.825-4.792,10.907-10.494
					c0.095-6.621-5.182-10.614-10.429-11.027c-7.08-0.56-11.331,5.717-11.249,11.924
					C238.467,272.544,243.611,277.185,249.173,277.211z"/>
				<path style="fill-rule:evenodd;clip-rule:evenodd;fill:#6C6C6C;" d="M187.062,281.028c2.556-6.549,5.237-12.74,9.051-18.379
					c1.251-1.851,2.516-3.698,3.897-5.451c0.406-0.517,1.232-0.982,1.872-0.989c8.47-0.102,16.941-0.119,25.413-0.15
					c0.11-0.002,0.223,0.059,0.586,0.162c-4.134,9.32-2.283,17.958,3.361,26.331C216.467,282.721,201.874,282.821,187.062,281.028z"
					/>
				<path style="fill-rule:evenodd;clip-rule:evenodd;fill:#FFFFFF;" d="M250.811,207.931c-2.038-3.637-3.953-7.126-5.938-10.578
					c-2.55-4.436-5.135-8.854-7.771-13.24c-0.279-0.466-0.976-0.889-1.522-0.949c-1.628-0.177-3.279-0.169-4.922-0.224
					c-19.483-0.645-35.318-8.246-46.411-24.623c-4.576-6.754-6.903-14.393-7.779-22.471c-1.028-9.491-1.133-18.952,1.958-28.135
					c4.596-13.664,12.483-25.06,23.634-34.265c10.177-8.4,22.172-12.142,34.881-14.167c18.001-2.867,35.326-0.501,51.802,7.276
					c10.827,5.11,18.979,13.355,25.595,23.187c5.452,8.103,9.613,16.811,10.789,26.592c1.451,12.074,0.984,24.114-4.232,35.323
					c-7.214,15.502-19.37,25.285-36.03,29.406c-5.812,1.438-11.672,2.24-17.661,1.769c-1.569-0.124-2.33,0.516-3.101,1.926
					c-2.482,4.541-5.252,8.924-7.848,13.404C254.429,201.316,252.703,204.528,250.811,207.931z"/>
				<path style="fill-rule:evenodd;clip-rule:evenodd;" d="M252.122,332.365c-5.513-0.39-9.413-0.605-13.669-1.103
					c-0.856-0.099-1.778-0.336-2.487-0.796c-0.542-0.351-1.208-1.226-1.111-1.734c1.046-5.566,2.244-11.133,6.537-15.286
					c9.648-9.33,21.006-3.644,24.921,4.602c1.443,3.042,2.214,6.423,3.121,9.695c0.49,1.764-0.084,2.544-1.906,2.813
					C262.134,331.354,257.634,331.927,252.122,332.365z M238.869,326.195c3.234-4.668,7.543-6.543,12.716-6.639
					c5.1-0.095,9.804,0.93,13.638,4.782c-0.762-2.269-1.48-4.526-2.688-6.485c-2.709-4.398-9.014-6.723-13.566-5.258
					C243.719,314.284,239.326,320.001,238.869,326.195z M240.016,328.203c8.556,1.404,16.792,1.205,25.159-0.535
					c-3.756-5.423-9.064-6.618-14.879-6.136C245.887,321.896,242.255,323.856,240.016,328.203z"/>
				<path style="fill-rule:evenodd;clip-rule:evenodd;fill:#FF958F;" d="M292.233,335.136c-3.719-0.253-6.94-1.759-9.501-4.402
					c-2.793-2.883-2.268-7.412,1.026-9.944c3.712-2.857,10.495-3.974,15.011-0.613c3.343,2.488,4.227,6.396,1.961,9.889
					C298.73,333.147,296.202,335.308,292.233,335.136z"/>
				<path style="fill-rule:evenodd;clip-rule:evenodd;fill:#FF958F;" d="M210.137,336.867c-4.698-0.038-9.283-4.334-9.491-8.726
					c-0.215-4.544,4.208-7.675,8.006-8.157c2.89-0.368,5.702,0.088,8.391,1.406c2.806,1.374,4.376,3.588,4.63,6.58
					c0.246,2.894-1.512,4.843-3.829,6.276C215.488,335.706,213.059,337.031,210.137,336.867z"/>
				<path style="fill-rule:evenodd;clip-rule:evenodd;" d="M219.525,302.272c-0.202,1.483-0.236,2.855-0.592,4.137
					c-0.622,2.242-2.174,3.318-4.41,3.332c-2.161,0.013-3.715-0.952-4.187-3.278c-0.447-2.208-0.518-4.54-0.374-6.796
					c0.066-1.051,0.858-2.2,1.616-3.041c2.287-2.541,6.124-1.78,7.228,1.443C219.271,299.429,219.309,300.935,219.525,302.272z"/>
				<path style="fill-rule:evenodd;clip-rule:evenodd;" d="M296.543,302.345c-0.202,1.487-0.24,2.799-0.579,4.026
					c-0.622,2.252-2.153,3.343-4.382,3.37c-2.174,0.027-3.731-0.919-4.214-3.241c-0.456-2.203-0.552-4.54-0.392-6.79
					c0.077-1.104,0.905-2.316,1.714-3.179c2.274-2.426,6.026-1.638,7.112,1.503C296.291,299.445,296.327,301.014,296.543,302.345z"
					/>
				<path style="fill-rule:evenodd;clip-rule:evenodd;" d="M249.173,277.211c-5.562-0.026-10.706-4.667-10.77-9.598
					c-0.082-6.207,4.169-12.483,11.249-11.924c5.247,0.413,10.523,4.406,10.429,11.027
					C259.998,272.419,255.04,277.239,249.173,277.211z M249.151,274.959c4.614,0.018,8.628-3.787,8.662-8.217
					c0.039-5.004-3.821-8.771-9.034-8.817c-4.649-0.043-8.071,3.957-8.114,9.482C240.637,271.232,244.801,274.94,249.151,274.959z"
					/>
				<path style="fill-rule:evenodd;clip-rule:evenodd;fill:#CC4E4E;" d="M238.869,326.195c0.457-6.194,4.85-11.911,10.1-13.6
					c4.553-1.465,10.857,0.859,13.566,5.258c1.207,1.959,1.926,4.217,2.688,6.485c-3.834-3.853-8.537-4.877-13.638-4.782
					C246.412,319.652,242.102,321.527,238.869,326.195z"/>
				<path style="fill-rule:evenodd;clip-rule:evenodd;fill:#E2807D;" d="M240.016,328.203c2.239-4.347,5.871-6.308,10.28-6.671
					c5.814-0.482,11.123,0.713,14.879,6.136C256.808,329.408,248.571,329.607,240.016,328.203z"/>
				<path style="fill-rule:evenodd;clip-rule:evenodd;fill:#FFF9D5;" d="M249.151,274.959c-4.35-0.019-8.515-3.727-8.486-7.553
					c0.043-5.525,3.464-9.525,8.114-9.482c5.213,0.046,9.073,3.814,9.034,8.817C257.779,271.172,253.766,274.978,249.151,274.959z"
					/>
				<g>
					<path style="fill-rule:evenodd;clip-rule:evenodd;" d="M180.587,328.779c6.788-7.423,13.048-4.515,14.961,2.593
						c0.905-0.74,1.777-1.514,2.712-2.201c5.453-4.03,11.239-0.049,11.563,5.635c0.172,3.035-0.448,6.156-0.999,9.186
						c-0.962,5.302-2.046,10.593-3.302,15.834c-0.425,1.774-1.332,3.522-2.371,5.04c-2.807,4.112-8.046,4.306-11.286,0.461
						c-1.015-1.202-1.703-2.676-2.652-4.205c-1.801,2.701-4.113,4.735-7.926,3.547c-3.383-1.052-5.253-3.438-6.39-6.818
						c-0.425,0.587-0.732,1.004-1.033,1.426c-2.945,4.134-8.041,4.305-11.464,0.491c-2.288-2.548-2.813-5.595-2.275-8.7
						c1.095-6.309,2.429-12.578,3.865-18.82c0.493-2.141,1.372-4.265,2.451-6.186c1.223-2.171,3.352-3.504,5.797-3.945
						c3.508-0.63,6.484,1.378,7.809,4.988C180.243,327.638,180.397,328.188,180.587,328.779z M177.633,330.701
						c-0.021-0.479,0.017-0.972-0.075-1.44c-0.605-3.067-3.18-5.832-6.887-3.358c-1.635,1.091-2.566,2.591-3.038,4.353
						c-1.381,5.154-2.805,10.307-3.885,15.528c-0.577,2.793-0.631,5.725-0.637,8.597c-0.005,2.283,1.414,3.878,3.477,4.764
						c2.156,0.926,3.558,0.669,4.642-1.382c1.281-2.428,2.382-5.033,3.038-7.688c1.032-4.19,1.628-8.486,2.41-12.739
						C177.081,335.14,177.719,330.719,177.633,330.701z M192.484,333.142c-0.023-0.481,0.02-0.974-0.075-1.44
						c-0.621-3.017-3.179-5.867-6.896-3.36c-1.477,0.998-2.457,2.307-2.881,3.896c-1.481,5.566-2.943,11.144-4.133,16.776
						c-0.535,2.527-0.534,5.195-0.544,7.801c-0.007,2.318,1.861,4.39,4.081,4.987c1.608,0.434,3.141,0.254,3.872-1.337
						c1.258-2.742,2.566-5.522,3.314-8.424c1.032-4.021,1.568-8.172,2.316-12.266C191.938,337.579,192.568,333.157,192.484,333.142z
						 M192.371,357.6c0.167,4.519,1.743,6.728,4.421,7.362c1.525,0.359,2.907,0.11,3.598-1.317c1.171-2.428,2.43-4.888,3.082-7.479
						c1.116-4.44,1.855-8.983,2.63-13.503c0.422-2.454,0.867-4.96,0.82-7.433c-0.079-4.214-3.636-6.025-6.984-3.58
						c-1.205,0.883-2.33,2.347-2.737,3.764c-1.56,5.43-2.896,10.929-4.141,16.442C192.557,354.079,192.505,356.404,192.371,357.6z"
						/>
					<path style="fill-rule:evenodd;clip-rule:evenodd;fill:#F9E280;" d="M176.678,337.335c-0.782,4.253-1.378,8.549-2.41,12.739
						c-0.656,2.654-1.756,5.26-3.038,7.688c-1.085,2.051-2.486,2.308-4.642,1.382c-2.063-0.886-3.482-2.48-3.477-4.764
						c0.005-2.872,0.06-5.804,0.637-8.597c1.08-5.222,2.504-10.374,3.885-15.528c0.472-1.762,1.403-3.262,3.038-4.353
						c3.707-2.474,6.283,0.291,6.887,3.358c0.092,0.469,0.054,0.961,0.075,1.44C177.719,330.719,177.081,335.14,176.678,337.335z"/>
					<path style="fill-rule:evenodd;clip-rule:evenodd;fill:#F9E280;" d="M191.536,339.775c-0.748,4.094-1.284,8.244-2.316,12.266
						c-0.747,2.901-2.056,5.682-3.314,8.424c-0.73,1.591-2.264,1.771-3.872,1.337c-2.22-0.598-4.087-2.669-4.081-4.987
						c0.01-2.605,0.009-5.274,0.544-7.801c1.19-5.633,2.652-11.21,4.133-16.776c0.424-1.589,1.404-2.897,2.881-3.896
						c3.718-2.507,6.275,0.344,6.896,3.36c0.095,0.466,0.053,0.958,0.075,1.44C192.568,333.157,191.938,337.579,191.536,339.775z"/>
					<path style="fill-rule:evenodd;clip-rule:evenodd;fill:#F9E280;" d="M192.371,357.6c0.134-1.195,0.186-3.521,0.689-5.743
						c1.245-5.514,2.581-11.013,4.141-16.442c0.407-1.417,1.532-2.881,2.737-3.764c3.348-2.445,6.905-0.634,6.984,3.58
						c0.047,2.473-0.398,4.979-0.82,7.433c-0.775,4.52-1.514,9.063-2.63,13.503c-0.652,2.591-1.911,5.051-3.082,7.479
						c-0.69,1.428-2.073,1.677-3.598,1.317C194.114,364.328,192.539,362.118,192.371,357.6z"/>
					<path style="fill-rule:evenodd;clip-rule:evenodd;fill:#F2C370;" d="M167.825,350.66c-1.249-0.118-1.93,0.252-1.847,1.674
						c0.126,2.145,1.077,3.601,2.467,3.511c0.921-0.06,2.681-2.41,2.443-3.771C170.601,350.41,168.983,350.843,167.825,350.66z"/>
					<path style="fill-rule:evenodd;clip-rule:evenodd;fill:#F2C370;" d="M182.748,353.222c-1.226-0.139-1.951,0.176-1.873,1.619
						c0.117,2.134,1.063,3.603,2.446,3.535c0.933-0.048,2.982-2.862,2.436-3.862C185.302,353.679,182.815,353.083,182.748,353.222z"
						/>
					<path style="fill-rule:evenodd;clip-rule:evenodd;fill:#F2C370;" d="M195.133,358.244c-0.157-1.308,0.333-1.96,1.693-1.844
						c0.58,0.05,1.178,0.01,1.739,0.138c1.66,0.387,1.832,0.743,1.224,2.306c-0.172,0.445-0.288,0.963-0.594,1.296
						c-0.501,0.543-1.228,1.418-1.696,1.324c-0.727-0.142-1.417-0.902-1.928-1.552C195.245,359.496,195.266,358.808,195.133,358.244
						z"/>
				</g>
				<g>
					<path style="fill-rule:evenodd;clip-rule:evenodd;" d="M322.362,327.103c1.325-3.61,4.301-5.618,7.81-4.988
						c2.445,0.441,4.575,1.774,5.798,3.945c1.079,1.922,1.958,4.046,2.451,6.186c1.435,6.242,2.77,12.512,3.865,18.82
						c0.538,3.105,0.013,6.152-2.275,8.7c-3.423,3.814-8.52,3.643-11.465-0.491c-0.301-0.422-0.607-0.839-1.033-1.426
						c-1.137,3.381-3.006,5.767-6.389,6.818c-3.814,1.188-6.125-0.846-7.927-3.547c-0.949,1.529-1.638,3.003-2.651,4.205
						c-3.24,3.845-8.48,3.651-11.287-0.461c-1.039-1.518-1.945-3.266-2.371-5.04c-1.256-5.241-2.34-10.532-3.302-15.834
						c-0.552-3.029-1.171-6.15-0.999-9.186c0.323-5.684,6.109-9.665,11.563-5.635c0.934,0.688,1.806,1.461,2.711,2.201
						c1.913-7.108,8.174-10.016,14.961-2.593C322.012,328.188,322.166,327.638,322.362,327.103z M325.731,337.335
						c0.781,4.253,1.378,8.549,2.41,12.739c0.655,2.654,1.756,5.26,3.037,7.688c1.084,2.051,2.486,2.308,4.643,1.382
						c2.063-0.886,3.482-2.48,3.477-4.764c-0.006-2.872-0.061-5.804-0.637-8.597c-1.08-5.222-2.504-10.374-3.885-15.528
						c-0.472-1.762-1.403-3.262-3.038-4.353c-3.707-2.474-6.282,0.291-6.888,3.358c-0.092,0.469-0.054,0.961-0.074,1.44
						C324.69,330.719,325.328,335.14,325.731,337.335z M310.872,339.775c0.748,4.094,1.285,8.244,2.316,12.266
						c0.748,2.901,2.057,5.682,3.314,8.424c0.73,1.591,2.264,1.771,3.871,1.337c2.22-0.598,4.088-2.669,4.08-4.987
						c-0.01-2.605-0.009-5.274-0.543-7.801c-1.19-5.633-2.652-11.21-4.134-16.776c-0.424-1.589-1.404-2.897-2.881-3.896
						c-3.718-2.507-6.275,0.344-6.896,3.36c-0.095,0.466-0.053,0.958-0.075,1.44C309.841,333.157,310.472,337.579,310.872,339.775z
						 M309.349,351.856c-1.245-5.514-2.582-11.013-4.142-16.442c-0.407-1.417-1.532-2.881-2.737-3.764
						c-3.348-2.445-6.904-0.634-6.983,3.58c-0.047,2.473,0.398,4.979,0.82,7.433c0.775,4.52,1.515,9.063,2.63,13.503
						c0.652,2.591,1.911,5.051,3.082,7.479c0.691,1.428,2.073,1.677,3.598,1.317c2.678-0.634,4.254-2.844,4.422-7.362
						C309.903,356.404,309.852,354.079,309.349,351.856z"/>
					<path style="fill-rule:evenodd;clip-rule:evenodd;fill:#F9E280;" d="M324.776,330.701c0.021-0.479-0.018-0.972,0.074-1.44
						c0.605-3.067,3.181-5.832,6.888-3.358c1.635,1.091,2.566,2.591,3.038,4.353c1.381,5.154,2.805,10.307,3.885,15.528
						c0.576,2.793,0.631,5.725,0.637,8.597c0.006,2.283-1.414,3.878-3.477,4.764c-2.156,0.926-3.559,0.669-4.643-1.382
						c-1.281-2.428-2.382-5.033-3.037-7.688c-1.032-4.19-1.629-8.486-2.41-12.739C325.328,335.14,324.69,330.719,324.776,330.701z"
						/>
					<path style="fill-rule:evenodd;clip-rule:evenodd;fill:#F9E280;" d="M309.925,333.142c0.022-0.481-0.02-0.974,0.075-1.44
						c0.621-3.017,3.179-5.867,6.896-3.36c1.477,0.998,2.457,2.307,2.881,3.896c1.482,5.566,2.943,11.144,4.134,16.776
						c0.534,2.527,0.533,5.195,0.543,7.801c0.008,2.318-1.86,4.39-4.08,4.987c-1.607,0.434-3.141,0.254-3.871-1.337
						c-1.258-2.742-2.566-5.522-3.314-8.424c-1.031-4.021-1.568-8.172-2.316-12.266
						C310.472,337.579,309.841,333.157,309.925,333.142z"/>
					<path style="fill-rule:evenodd;clip-rule:evenodd;fill:#F9E280;" d="M305.616,364.962c-1.524,0.359-2.906,0.11-3.598-1.317
						c-1.171-2.428-2.43-4.888-3.082-7.479c-1.115-4.44-1.854-8.983-2.63-13.503c-0.422-2.454-0.867-4.96-0.82-7.433
						c0.079-4.214,3.636-6.025,6.983-3.58c1.205,0.883,2.33,2.347,2.737,3.764c1.56,5.43,2.896,10.929,4.142,16.442
						c0.503,2.223,0.555,4.548,0.689,5.743C309.87,362.118,308.294,364.328,305.616,364.962z"/>
					<path style="fill-rule:evenodd;clip-rule:evenodd;fill:#F2C370;" d="M334.583,350.66c-1.157,0.183-2.775-0.25-3.063,1.413
						c-0.238,1.361,1.522,3.712,2.443,3.771c1.39,0.091,2.341-1.365,2.467-3.511C336.513,350.912,335.833,350.542,334.583,350.66z"
						/>
					<path style="fill-rule:evenodd;clip-rule:evenodd;fill:#F2C370;" d="M316.651,354.514c-0.545,1,1.504,3.814,2.436,3.862
						c1.383,0.067,2.329-1.401,2.446-3.535c0.077-1.443-0.648-1.758-1.874-1.619C319.594,353.083,317.106,353.679,316.651,354.514z"
						/>
					<path style="fill-rule:evenodd;clip-rule:evenodd;fill:#F2C370;" d="M307.276,358.244c0.156-1.308-0.334-1.96-1.693-1.844
						c-0.58,0.05-1.179,0.01-1.74,0.138c-1.66,0.387-1.831,0.743-1.223,2.306c0.172,0.445,0.287,0.963,0.594,1.296
						c0.5,0.543,1.227,1.418,1.695,1.324c0.727-0.142,1.417-0.902,1.928-1.552C307.164,359.496,307.143,358.808,307.276,358.244z"/>
				</g>
			</g>
		</g>
	</g>
	<g id="_x34_04_ERROR">
		<g>
			<g>
				<path d="M199.486,149.98v-20.542c0-1.08,0.835-1.916,1.915-1.916h0.035c0,0,0,0,0.07,0h11.281c1.01,0,1.915,0.836,1.915,1.916
					c0,1.079-0.905,1.95-1.915,1.95h-9.436v6.372h8.113c1.044,0,1.915,0.905,1.915,1.915c0,1.079-0.871,1.95-1.915,1.95h-8.113
					v6.407h9.436c1.01,0,1.915,0.871,1.915,1.95c0,1.044-0.905,1.915-1.915,1.915h-11.281c-0.07,0-0.07-0.035-0.07-0.035
					l-0.035,0.035C200.322,151.895,199.486,151.025,199.486,149.98z"/>
				<path d="M235.136,149.005c0.349,1.01-0.209,2.089-1.219,2.438c-0.139,0.035-0.417,0.104-0.766,0.104c0,0,0,0-0.035,0
					c-0.348,0-0.871-0.07-1.358-0.383c-0.452-0.279-0.835-0.731-1.114-1.219c-0.487-1.01-0.731-2.263-0.731-4.178
					c-0.035-0.662-0.174-1.114-0.418-1.498c-0.209-0.383-0.626-0.731-1.044-1.009c-0.731-0.487-1.636-0.766-1.95-0.836h-4.108v7.556
					c0,1.044-0.871,1.915-1.95,1.915c-1.079,0-1.915-0.871-1.915-1.915v-20.542c0-1.08,0.836-1.916,1.915-1.916c0,0,0,0,0.035,0
					h6.197c4.144,0,7.452,3.342,7.452,7.486c0,2.298-1.045,4.317-2.716,5.71c0.452,0.348,0.87,0.766,1.218,1.288
					c0.697,1.01,1.149,2.298,1.149,3.761c-0.035,1.044,0.07,1.706,0.139,2.054C234.475,147.996,234.928,148.414,235.136,149.005z
					 M230.262,135.009c0-2.02-1.602-3.621-3.587-3.621h-4.282v7.172h4.282C228.66,138.56,230.262,136.958,230.262,135.009z"/>
				<path d="M255.86,149.005c0.348,1.01-0.209,2.089-1.219,2.438c-0.14,0.035-0.418,0.104-0.767,0.104c0,0,0,0-0.034,0
					c-0.349,0-0.871-0.07-1.358-0.383c-0.452-0.279-0.836-0.731-1.114-1.219c-0.487-1.01-0.732-2.263-0.732-4.178
					c-0.034-0.662-0.174-1.114-0.417-1.498c-0.208-0.383-0.626-0.731-1.044-1.009c-0.731-0.487-1.636-0.766-1.95-0.836h-4.108v7.556
					c0,1.044-0.871,1.915-1.95,1.915c-1.08,0-1.915-0.871-1.915-1.915v-20.542c0-1.08,0.835-1.916,1.915-1.916c0,0,0,0,0.035,0
					h6.197c4.144,0,7.452,3.342,7.452,7.486c0,2.298-1.045,4.317-2.716,5.71c0.453,0.348,0.87,0.766,1.219,1.288
					c0.696,1.01,1.148,2.298,1.148,3.761c-0.034,1.044,0.07,1.706,0.14,2.054C255.199,147.996,255.651,148.414,255.86,149.005z
					 M250.986,135.009c0-2.02-1.603-3.621-3.587-3.621h-4.282v7.172h4.282C249.384,138.56,250.986,136.958,250.986,135.009z"/>
				<path d="M278.572,130.552c2.16,2.297,3.517,5.361,3.517,8.809c0,3.447-1.357,6.546-3.517,8.809
					c-2.055,2.263-5.118,3.726-8.321,3.726c-3.342,0-6.405-1.462-8.531-3.726c-2.157-2.263-3.445-5.362-3.445-8.809
					c0-3.447,1.288-6.511,3.445-8.809c2.126-2.298,5.189-3.726,8.531-3.726C273.454,126.826,276.518,128.254,278.572,130.552z
					 M278.12,139.361c0-2.368-0.939-4.561-2.367-6.093c-1.463-1.566-3.413-2.472-5.502-2.472c-2.228,0-4.177,0.905-5.641,2.472
					c-1.463,1.532-2.366,3.726-2.366,6.093c0,2.368,0.903,4.562,2.366,6.058c1.464,1.567,3.413,2.507,5.641,2.507
					c2.089,0,4.039-0.94,5.502-2.507C277.181,143.922,278.12,141.729,278.12,139.361z"/>
				<path d="M301.96,149.005c0.349,1.01-0.208,2.089-1.219,2.438c-0.139,0.035-0.417,0.104-0.766,0.104c0,0,0,0-0.035,0
					c-0.348,0-0.87-0.07-1.357-0.383c-0.452-0.279-0.836-0.731-1.114-1.219c-0.487-1.01-0.731-2.263-0.731-4.178
					c-0.034-0.662-0.174-1.114-0.418-1.498c-0.209-0.383-0.626-0.731-1.044-1.009c-0.732-0.487-1.636-0.766-1.949-0.836h-4.109
					v7.556c0,1.044-0.87,1.915-1.949,1.915c-1.08,0-1.915-0.871-1.915-1.915v-20.542c0-1.08,0.835-1.916,1.915-1.916
					c0,0,0,0,0.034,0h6.198c4.144,0,7.451,3.342,7.451,7.486c0,2.298-1.045,4.317-2.716,5.71c0.452,0.348,0.87,0.766,1.218,1.288
					c0.697,1.01,1.149,2.298,1.149,3.761c-0.035,1.044,0.069,1.706,0.139,2.054C301.299,147.996,301.752,148.414,301.96,149.005z
					 M297.086,135.009c0-2.02-1.603-3.621-3.586-3.621h-4.283v7.172h4.283C295.483,138.56,297.086,136.958,297.086,135.009z"/>
			</g>
			<g>
				<path d="M240.022,114.818c0,1.08-0.871,1.915-1.95,1.915h-0.348v2.646c0,1.079-0.835,1.915-1.915,1.915
					c-1.079,0-1.915-0.836-1.915-1.915v-2.646h-10.898h-0.035h-0.035c-0.418,0-0.836-0.104-1.184-0.417
					c-0.871-0.662-0.975-1.845-0.313-2.682l12.883-16.016c0.035,0,0.035-0.035,0.069-0.07c0.035-0.035,0.07-0.07,0.105-0.139
					c0.104-0.035,0.139-0.07,0.174-0.105c0.035-0.035,0.104-0.07,0.14-0.104c0.069-0.035,0.104-0.07,0.209-0.07
					c0.035-0.07,0.07-0.104,0.14-0.104c0.034-0.035,0.104-0.035,0.209-0.07c0.035,0,0.104,0,0.139-0.035c0.07,0,0.174,0,0.244,0
					c0,0,0.035,0,0.07,0c0.035,0,0.035,0,0.07,0c0.07,0,0.174,0,0.209,0c0.07,0.035,0.105,0.035,0.174,0.035
					c0.034,0.035,0.139,0.035,0.208,0.07c0.035,0,0.105,0.035,0.139,0.035c0.07,0.07,0.14,0.105,0.174,0.14
					c0.069,0.034,0.104,0.069,0.174,0.104c0,0,0.035,0,0.035,0.035c0.035,0,0.104,0.035,0.104,0.07
					c0.07,0.069,0.105,0.104,0.14,0.139c0.035,0.035,0.07,0.105,0.104,0.14c0.035,0.035,0.069,0.07,0.139,0.174
					c0,0.035,0.035,0.104,0.07,0.14c0.035,0.069,0.035,0.104,0.07,0.209c0,0.035,0.034,0.104,0.034,0.139
					c0.035,0.07,0.035,0.105,0.035,0.21c0,0.069,0.035,0.104,0.035,0.174c0,0.035,0,0.07,0,0.104v14.066h0.348
					C239.152,112.903,240.022,113.774,240.022,114.818z M233.894,104.303l-6.929,8.6h6.929V104.303z"/>
				<path d="M242.543,109.108c0.035-3.204,0.835-6.093,2.367-8.321c1.462-2.229,3.726-3.866,6.476-3.866
					c2.682,0,4.979,1.637,6.441,3.866c1.498,2.228,2.333,5.118,2.333,8.321c0,3.168-0.835,6.093-2.333,8.322
					c-1.463,2.193-3.76,3.865-6.441,3.865c-2.75,0-5.014-1.671-6.476-3.865C243.379,115.202,242.578,112.276,242.543,109.108z
					 M256.297,109.108c0-2.507-0.696-4.7-1.672-6.198c-1.01-1.462-2.158-2.159-3.238-2.123c-1.079-0.035-2.263,0.661-3.307,2.123
					c-0.975,1.498-1.671,3.691-1.671,6.198c0,2.472,0.697,4.701,1.671,6.163c1.044,1.497,2.228,2.159,3.307,2.159
					c1.08,0,2.229-0.662,3.238-2.159C255.601,113.809,256.297,111.581,256.297,109.108z"/>
				<path d="M280.83,114.818c0,1.08-0.87,1.915-1.95,1.915h-0.348v2.646c0,1.079-0.835,1.915-1.915,1.915s-1.915-0.836-1.915-1.915
					v-2.646h-10.898h-0.035h-0.034c-0.418,0-0.835-0.104-1.184-0.417c-0.871-0.662-0.976-1.845-0.313-2.682l12.884-16.016
					c0.034,0,0.034-0.035,0.068-0.07c0.034-0.035,0.069-0.07,0.105-0.139c0.103-0.035,0.139-0.07,0.174-0.105
					c0.034-0.035,0.104-0.07,0.14-0.104c0.068-0.035,0.103-0.07,0.208-0.07c0.034-0.07,0.069-0.104,0.14-0.104
					c0.034-0.035,0.104-0.035,0.208-0.07c0.035,0,0.105,0,0.14-0.035c0.069,0,0.174,0,0.243,0c0,0,0.036,0,0.07,0
					c0.034,0,0.034,0,0.069,0c0.07,0,0.174,0,0.21,0c0.068,0.035,0.104,0.035,0.174,0.035c0.034,0.035,0.14,0.035,0.208,0.07
					c0.035,0,0.105,0.035,0.14,0.035c0.069,0.07,0.14,0.105,0.174,0.14c0.069,0.034,0.105,0.069,0.174,0.104
					c0,0,0.035,0,0.035,0.035c0.036,0,0.105,0.035,0.105,0.07c0.069,0.069,0.105,0.104,0.14,0.139
					c0.034,0.035,0.069,0.105,0.104,0.14c0.035,0.035,0.069,0.07,0.139,0.174c0,0.035,0.036,0.104,0.07,0.14
					c0.034,0.069,0.034,0.104,0.069,0.209c0,0.035,0.035,0.104,0.035,0.139c0.035,0.07,0.035,0.105,0.035,0.21
					c0,0.069,0.034,0.104,0.034,0.174c0,0.035,0,0.07,0,0.104v14.066h0.348C279.96,112.903,280.83,113.774,280.83,114.818z
					 M274.702,104.303l-6.929,8.6h6.929V104.303z"/>
			</g>
		</g>
	</g>
	<g id="THIS_PAGE_IS_LOST">
		<text transform="matrix(1 0 0 1 142.7495 413.4082)" style="font-family:'Quicksand-Bold'; font-size:22.6353px;">THIS PAGE IS LOST</text>
	</g>
</g>
<g id="DESIGNED_BY_FREEPIK">
	<g>
		<g>
			<g>
				<path d="M180.14,485.137v-0.16c-0.218,0.249-0.433,0.452-0.644,0.608c-0.212,0.156-0.442,0.275-0.689,0.356
					c-0.247,0.082-0.517,0.122-0.809,0.122c-0.389,0-0.747-0.082-1.078-0.247c-0.33-0.163-0.616-0.398-0.856-0.703
					c-0.243-0.305-0.425-0.662-0.55-1.074c-0.125-0.412-0.188-0.857-0.188-1.335c0-1.014,0.247-1.805,0.742-2.37
					c0.495-0.565,1.145-0.848,1.953-0.848c0.467,0,0.86,0.08,1.181,0.239c0.321,0.161,0.634,0.407,0.938,0.739v-2.393
					c0-0.332,0.065-0.583,0.199-0.753c0.132-0.171,0.321-0.255,0.567-0.255c0.245,0,0.433,0.078,0.566,0.234
					c0.133,0.156,0.198,0.386,0.198,0.69v7.147c0,0.309-0.07,0.541-0.214,0.694c-0.143,0.154-0.325,0.232-0.551,0.232
					c-0.223,0-0.406-0.081-0.55-0.241C180.212,485.662,180.14,485.434,180.14,485.137z M176.952,482.756
					c0,0.439,0.068,0.813,0.205,1.122c0.137,0.31,0.323,0.542,0.56,0.697c0.238,0.157,0.497,0.235,0.778,0.235
					c0.285,0,0.546-0.074,0.781-0.223c0.235-0.148,0.423-0.377,0.563-0.682c0.141-0.308,0.21-0.691,0.21-1.15
					c0-0.431-0.069-0.802-0.21-1.113c-0.141-0.31-0.33-0.548-0.57-0.713c-0.238-0.163-0.501-0.245-0.785-0.245
					c-0.297,0-0.563,0.085-0.797,0.253c-0.232,0.167-0.414,0.409-0.543,0.724C177.016,481.977,176.952,482.342,176.952,482.756z"/>
				<path d="M187.285,483.166h-3.169c0.004,0.368,0.078,0.692,0.223,0.974c0.143,0.282,0.337,0.493,0.575,0.636
					c0.24,0.143,0.505,0.213,0.793,0.213c0.193,0,0.371-0.023,0.531-0.067c0.16-0.047,0.315-0.116,0.467-0.214
					c0.15-0.097,0.288-0.201,0.415-0.313c0.126-0.111,0.29-0.262,0.492-0.451c0.083-0.071,0.202-0.106,0.357-0.106
					c0.166,0,0.301,0.046,0.403,0.137c0.104,0.091,0.155,0.22,0.155,0.386c0,0.146-0.059,0.317-0.172,0.514
					c-0.115,0.195-0.289,0.383-0.52,0.565c-0.232,0.179-0.522,0.328-0.873,0.447c-0.351,0.119-0.753,0.179-1.209,0.179
					c-1.039,0-1.85-0.298-2.428-0.892c-0.577-0.593-0.865-1.398-0.865-2.416c0-0.479,0.07-0.922,0.213-1.331
					c0.143-0.41,0.351-0.762,0.623-1.055c0.273-0.293,0.609-0.517,1.01-0.674c0.4-0.156,0.842-0.233,1.329-0.233
					c0.634,0,1.177,0.132,1.629,0.4c0.454,0.266,0.793,0.611,1.019,1.035c0.225,0.424,0.339,0.855,0.339,1.294
					c0,0.407-0.117,0.671-0.351,0.794C188.038,483.105,187.71,483.166,187.285,483.166z M184.116,482.246h2.939
					c-0.039-0.555-0.19-0.969-0.448-1.244c-0.259-0.275-0.601-0.412-1.024-0.412c-0.403,0-0.734,0.139-0.993,0.418
					C184.328,481.287,184.172,481.7,184.116,482.246z"/>
				<path d="M194.67,483.943c0,0.447-0.108,0.831-0.326,1.149c-0.218,0.318-0.539,0.56-0.965,0.724
					c-0.425,0.165-0.942,0.247-1.553,0.247c-0.581,0-1.08-0.089-1.495-0.268c-0.415-0.179-0.723-0.401-0.92-0.668
					c-0.198-0.267-0.298-0.534-0.298-0.804c0-0.179,0.064-0.331,0.191-0.457c0.126-0.127,0.286-0.19,0.48-0.19
					c0.17,0,0.301,0.042,0.391,0.124c0.092,0.084,0.18,0.201,0.262,0.351c0.166,0.29,0.365,0.505,0.598,0.647
					c0.23,0.143,0.546,0.213,0.946,0.213c0.324,0,0.591-0.071,0.798-0.216c0.208-0.146,0.311-0.31,0.311-0.497
					c0-0.284-0.107-0.491-0.323-0.622c-0.216-0.131-0.57-0.255-1.066-0.375c-0.558-0.138-1.012-0.283-1.361-0.436
					c-0.351-0.151-0.631-0.353-0.84-0.602c-0.21-0.251-0.314-0.557-0.314-0.921c0-0.324,0.097-0.631,0.291-0.92
					c0.193-0.288,0.48-0.52,0.857-0.691c0.378-0.173,0.834-0.259,1.367-0.259c0.42,0,0.798,0.043,1.131,0.131
					c0.336,0.087,0.615,0.204,0.838,0.351c0.225,0.146,0.394,0.309,0.51,0.485c0.117,0.179,0.176,0.353,0.176,0.524
					c0,0.186-0.063,0.338-0.187,0.456c-0.125,0.118-0.302,0.179-0.532,0.179c-0.166,0-0.307-0.048-0.424-0.144
					c-0.117-0.095-0.25-0.236-0.4-0.427c-0.123-0.158-0.267-0.285-0.434-0.38c-0.166-0.095-0.392-0.143-0.678-0.143
					c-0.293,0-0.535,0.062-0.73,0.188c-0.193,0.124-0.29,0.278-0.29,0.466c0,0.17,0.07,0.31,0.213,0.418
					c0.143,0.109,0.335,0.199,0.576,0.27c0.242,0.071,0.573,0.158,0.998,0.262c0.501,0.123,0.912,0.27,1.231,0.439
					c0.317,0.17,0.559,0.371,0.724,0.604C194.589,483.383,194.67,483.647,194.67,483.943z"/>
				<path d="M196.326,478.721c-0.227,0-0.419-0.069-0.579-0.209c-0.16-0.138-0.24-0.333-0.24-0.587c0-0.23,0.081-0.419,0.246-0.567
					c0.164-0.149,0.355-0.223,0.573-0.223c0.209,0,0.394,0.067,0.558,0.201c0.162,0.136,0.244,0.331,0.244,0.589
					c0,0.249-0.08,0.444-0.238,0.585C196.73,478.65,196.543,478.721,196.326,478.721z M197.128,480.395v4.683
					c0,0.324-0.077,0.571-0.232,0.737c-0.155,0.166-0.351,0.249-0.587,0.249c-0.238,0-0.431-0.086-0.58-0.255
					c-0.148-0.172-0.222-0.414-0.222-0.732v-4.637c0-0.319,0.073-0.561,0.222-0.724c0.149-0.162,0.342-0.243,0.58-0.243
					c0.236,0,0.432,0.081,0.587,0.243S197.128,480.105,197.128,480.395z"/>
				<path d="M204.227,480.662v4.707c0,0.538-0.058,1-0.173,1.389c-0.114,0.387-0.298,0.708-0.552,0.962
					c-0.254,0.253-0.584,0.44-0.994,0.563c-0.409,0.124-0.919,0.185-1.529,0.185c-0.558,0-1.057-0.078-1.496-0.234
					c-0.438-0.156-0.776-0.357-1.015-0.605c-0.236-0.246-0.356-0.502-0.356-0.763c0-0.198,0.067-0.359,0.203-0.483
					c0.134-0.125,0.297-0.188,0.485-0.188c0.238,0,0.446,0.105,0.624,0.314c0.087,0.107,0.177,0.216,0.27,0.324
					c0.093,0.109,0.197,0.201,0.309,0.279c0.113,0.076,0.249,0.134,0.407,0.172c0.158,0.036,0.341,0.056,0.546,0.056
					c0.42,0,0.745-0.058,0.978-0.175c0.231-0.117,0.394-0.28,0.486-0.49c0.093-0.209,0.147-0.434,0.163-0.673
					c0.016-0.24,0.027-0.625,0.035-1.156c-0.249,0.35-0.537,0.615-0.863,0.798c-0.327,0.182-0.716,0.271-1.167,0.271
					c-0.542,0-1.016-0.138-1.422-0.415c-0.405-0.276-0.717-0.665-0.934-1.163c-0.219-0.499-0.327-1.074-0.327-1.728
					c0-0.487,0.066-0.927,0.199-1.318c0.133-0.392,0.322-0.723,0.566-0.991c0.246-0.27,0.528-0.473,0.85-0.609
					c0.319-0.135,0.672-0.203,1.057-0.203c0.458,0,0.855,0.088,1.192,0.264c0.336,0.177,0.649,0.453,0.938,0.828v-0.221
					c0-0.28,0.069-0.498,0.208-0.652c0.139-0.154,0.317-0.232,0.534-0.232c0.313,0,0.521,0.103,0.624,0.306
					C204.175,479.982,204.227,480.277,204.227,480.662z M199.531,482.715c0,0.656,0.143,1.153,0.43,1.49
					c0.287,0.337,0.658,0.504,1.113,0.504c0.269,0,0.524-0.071,0.762-0.216c0.24-0.146,0.436-0.362,0.586-0.653
					c0.15-0.291,0.226-0.645,0.226-1.059c0-0.661-0.145-1.176-0.437-1.543c-0.291-0.369-0.674-0.554-1.148-0.554
					c-0.464,0-0.834,0.177-1.113,0.528C199.67,481.565,199.531,482.066,199.531,482.715z"/>
				<path d="M206.802,480.37v0.196c0.284-0.376,0.597-0.652,0.935-0.829c0.339-0.176,0.728-0.264,1.167-0.264
					c0.428,0,0.81,0.093,1.146,0.28c0.336,0.186,0.588,0.449,0.754,0.788c0.108,0.198,0.176,0.413,0.207,0.641
					c0.033,0.232,0.049,0.523,0.049,0.879v3.016c0,0.324-0.074,0.571-0.223,0.737c-0.148,0.166-0.342,0.249-0.579,0.249
					c-0.241,0-0.438-0.086-0.588-0.255c-0.15-0.172-0.226-0.414-0.226-0.732v-2.7c0-0.535-0.074-0.943-0.223-1.226
					c-0.148-0.283-0.443-0.425-0.888-0.425c-0.288,0-0.552,0.085-0.789,0.258c-0.237,0.173-0.411,0.41-0.522,0.71
					c-0.079,0.241-0.118,0.692-0.118,1.353v2.03c0,0.328-0.077,0.576-0.229,0.739c-0.152,0.165-0.349,0.247-0.591,0.247
					c-0.234,0-0.426-0.086-0.576-0.255c-0.15-0.172-0.226-0.414-0.226-0.732v-4.683c0-0.309,0.067-0.54,0.202-0.692
					c0.135-0.152,0.318-0.228,0.551-0.228c0.143,0,0.272,0.033,0.387,0.102c0.115,0.067,0.207,0.169,0.276,0.302
					C206.768,480.012,206.802,480.177,206.802,480.37z"/>
				<path d="M216.66,483.166h-3.17c0.006,0.368,0.078,0.692,0.225,0.974c0.143,0.282,0.336,0.493,0.574,0.636
					c0.24,0.143,0.504,0.213,0.793,0.213c0.193,0,0.371-0.023,0.531-0.067c0.16-0.047,0.314-0.116,0.467-0.214
					c0.15-0.097,0.287-0.201,0.414-0.313c0.127-0.111,0.291-0.262,0.494-0.451c0.082-0.071,0.201-0.106,0.355-0.106
					c0.166,0,0.301,0.046,0.404,0.137c0.102,0.091,0.152,0.22,0.152,0.386c0,0.146-0.057,0.317-0.172,0.514
					c-0.113,0.195-0.287,0.383-0.52,0.565c-0.23,0.179-0.521,0.328-0.871,0.447c-0.352,0.119-0.754,0.179-1.209,0.179
					c-1.039,0-1.85-0.298-2.428-0.892c-0.578-0.593-0.867-1.398-0.867-2.416c0-0.479,0.072-0.922,0.215-1.331
					c0.143-0.41,0.35-0.762,0.623-1.055c0.273-0.293,0.609-0.517,1.01-0.674c0.398-0.156,0.842-0.233,1.328-0.233
					c0.635,0,1.176,0.132,1.631,0.4c0.453,0.266,0.791,0.611,1.018,1.035c0.225,0.424,0.338,0.855,0.338,1.294
					c0,0.407-0.115,0.671-0.35,0.794C217.412,483.105,217.084,483.166,216.66,483.166z M213.49,482.246h2.939
					c-0.039-0.555-0.189-0.969-0.449-1.244c-0.258-0.275-0.6-0.412-1.023-0.412c-0.404,0-0.734,0.139-0.994,0.418
					C213.703,481.287,213.547,481.7,213.49,482.246z"/>
				<path d="M223.268,485.137v-0.16c-0.219,0.249-0.434,0.452-0.645,0.608c-0.211,0.156-0.441,0.275-0.689,0.356
					c-0.246,0.082-0.518,0.122-0.809,0.122c-0.389,0-0.748-0.082-1.078-0.247c-0.33-0.163-0.615-0.398-0.857-0.703
					c-0.242-0.305-0.426-0.662-0.549-1.074c-0.125-0.412-0.188-0.857-0.188-1.335c0-1.014,0.248-1.805,0.742-2.37
					c0.494-0.565,1.146-0.848,1.953-0.848c0.467,0,0.861,0.08,1.182,0.239c0.32,0.161,0.633,0.407,0.938,0.739v-2.393
					c0-0.332,0.066-0.583,0.199-0.753c0.131-0.171,0.32-0.255,0.566-0.255c0.244,0,0.434,0.078,0.566,0.234
					c0.133,0.156,0.199,0.386,0.199,0.69v7.147c0,0.309-0.072,0.541-0.213,0.694c-0.143,0.154-0.328,0.232-0.553,0.232
					c-0.221,0-0.404-0.081-0.549-0.241C223.34,485.662,223.268,485.434,223.268,485.137z M220.08,482.756
					c0,0.439,0.066,0.813,0.203,1.122c0.137,0.31,0.324,0.542,0.563,0.697c0.236,0.157,0.496,0.235,0.777,0.235
					c0.285,0,0.545-0.074,0.779-0.223c0.236-0.148,0.424-0.377,0.564-0.682c0.141-0.308,0.211-0.691,0.211-1.15
					c0-0.431-0.07-0.802-0.211-1.113c-0.141-0.31-0.33-0.548-0.57-0.713c-0.238-0.163-0.502-0.245-0.785-0.245
					c-0.297,0-0.563,0.085-0.797,0.253c-0.232,0.167-0.414,0.409-0.543,0.724C220.145,481.977,220.08,482.342,220.08,482.756z"/>
				<path d="M229.891,477.989v2.476c0.305-0.316,0.615-0.559,0.932-0.728c0.316-0.167,0.709-0.251,1.176-0.251
					c0.539,0,1.01,0.127,1.416,0.382c0.404,0.257,0.721,0.626,0.943,1.11c0.223,0.484,0.336,1.061,0.336,1.726
					c0,0.49-0.063,0.939-0.188,1.35c-0.125,0.409-0.307,0.765-0.543,1.064c-0.238,0.302-0.525,0.535-0.863,0.698
					c-0.338,0.165-0.711,0.247-1.119,0.247c-0.25,0-0.484-0.029-0.703-0.089c-0.221-0.061-0.408-0.137-0.561-0.234
					c-0.154-0.097-0.287-0.197-0.395-0.301c-0.109-0.103-0.254-0.258-0.432-0.463v0.16c0,0.305-0.072,0.536-0.219,0.692
					c-0.146,0.156-0.332,0.234-0.559,0.234c-0.229,0-0.412-0.078-0.549-0.234c-0.137-0.156-0.205-0.388-0.205-0.692v-7.076
					c0-0.328,0.066-0.576,0.199-0.745c0.133-0.167,0.318-0.251,0.555-0.251c0.25,0,0.441,0.079,0.576,0.239
					C229.824,477.465,229.891,477.693,229.891,477.989z M229.969,482.804c0,0.645,0.146,1.141,0.441,1.487
					c0.295,0.347,0.682,0.52,1.16,0.52c0.408,0,0.76-0.177,1.055-0.531c0.295-0.354,0.441-0.861,0.441-1.523
					c0-0.427-0.061-0.795-0.184-1.104c-0.123-0.309-0.297-0.548-0.521-0.715c-0.227-0.168-0.49-0.253-0.791-0.253
					c-0.309,0-0.584,0.085-0.824,0.253c-0.242,0.167-0.432,0.411-0.57,0.73C230.037,481.984,229.969,482.364,229.969,482.804z"/>
				<path d="M236.793,486.265l0.15-0.362l-1.996-5.022c-0.121-0.288-0.184-0.498-0.184-0.628c0-0.14,0.035-0.268,0.107-0.387
					c0.07-0.118,0.168-0.213,0.293-0.284c0.125-0.071,0.254-0.107,0.389-0.107c0.234,0,0.41,0.075,0.529,0.223
					c0.119,0.148,0.223,0.361,0.314,0.638l1.371,3.99l1.301-3.711c0.102-0.3,0.195-0.536,0.277-0.706
					c0.084-0.171,0.172-0.286,0.266-0.345c0.092-0.06,0.225-0.089,0.395-0.089c0.123,0,0.24,0.032,0.354,0.098
					c0.113,0.066,0.199,0.154,0.26,0.265c0.061,0.11,0.094,0.228,0.094,0.35c-0.018,0.076-0.043,0.182-0.078,0.321
					c-0.035,0.138-0.078,0.279-0.131,0.421l-2.113,5.533c-0.182,0.486-0.359,0.868-0.535,1.146c-0.174,0.276-0.404,0.49-0.691,0.638
					c-0.285,0.149-0.674,0.223-1.16,0.223c-0.475,0-0.83-0.051-1.068-0.154c-0.238-0.103-0.355-0.291-0.355-0.564
					c0-0.185,0.055-0.329,0.17-0.431c0.111-0.101,0.279-0.151,0.5-0.151c0.088,0,0.174,0.012,0.256,0.036
					c0.104,0.023,0.191,0.035,0.268,0.035c0.186,0,0.332-0.027,0.439-0.084c0.105-0.055,0.201-0.15,0.287-0.288
					C236.586,486.73,236.684,486.529,236.793,486.265z"/>
			</g>
			<g>
				<path d="M260.271,479.614h0.387v-0.487c0-0.509,0.063-0.91,0.191-1.211c0.127-0.299,0.346-0.516,0.654-0.652
					c0.307-0.136,0.727-0.204,1.26-0.204c0.949,0,1.42,0.229,1.42,0.696c0,0.149-0.049,0.277-0.15,0.385
					c-0.096,0.105-0.215,0.16-0.348,0.16c-0.063,0-0.174-0.012-0.33-0.038c-0.148-0.021-0.281-0.034-0.389-0.034
					c-0.293,0-0.479,0.088-0.566,0.259c-0.078,0.173-0.121,0.419-0.121,0.741v0.386h0.395c0.619,0,0.926,0.186,0.926,0.56
					c0,0.262-0.08,0.432-0.246,0.502c-0.162,0.072-0.389,0.107-0.68,0.107h-0.395v4.295c0,0.318-0.076,0.563-0.23,0.73
					c-0.152,0.169-0.348,0.254-0.59,0.254c-0.231,0-0.42-0.085-0.574-0.254c-0.152-0.168-0.227-0.412-0.227-0.73v-4.295h-0.447
					c-0.242,0-0.426-0.052-0.559-0.163c-0.131-0.107-0.195-0.25-0.195-0.424C259.457,479.806,259.727,479.614,260.271,479.614"/>
				<path d="M265.576,483.723v1.355c0,0.327-0.082,0.574-0.234,0.737c-0.152,0.166-0.348,0.247-0.586,0.247
					c-0.236,0-0.43-0.082-0.578-0.251c-0.146-0.165-0.225-0.41-0.225-0.733v-4.514c0-0.73,0.262-1.094,0.787-1.094
					c0.271,0,0.465,0.084,0.584,0.255c0.119,0.171,0.184,0.421,0.197,0.755c0.193-0.334,0.391-0.584,0.594-0.755
					c0.207-0.171,0.477-0.255,0.818-0.255s0.67,0.084,0.99,0.255c0.322,0.171,0.482,0.397,0.482,0.679
					c0,0.196-0.068,0.362-0.203,0.488c-0.139,0.131-0.285,0.193-0.441,0.193c-0.063,0-0.207-0.039-0.434-0.111
					c-0.229-0.071-0.43-0.107-0.602-0.107c-0.238,0-0.434,0.063-0.582,0.186c-0.15,0.128-0.27,0.311-0.354,0.554
					c-0.08,0.247-0.137,0.541-0.17,0.878C265.59,482.823,265.576,483.236,265.576,483.723"/>
				<path d="M273.027,483.165h-3.172c0.006,0.368,0.078,0.693,0.223,0.975c0.146,0.278,0.336,0.49,0.576,0.635
					c0.242,0.143,0.504,0.212,0.795,0.212c0.193,0,0.369-0.021,0.531-0.069c0.158-0.043,0.314-0.116,0.465-0.212
					c0.15-0.096,0.287-0.199,0.414-0.313c0.127-0.11,0.293-0.261,0.494-0.449c0.084-0.071,0.203-0.109,0.356-0.109
					c0.168,0,0.301,0.047,0.406,0.139c0.104,0.092,0.152,0.219,0.152,0.385c0,0.148-0.057,0.318-0.168,0.514
					c-0.117,0.197-0.289,0.384-0.521,0.566c-0.234,0.178-0.525,0.329-0.875,0.445c-0.35,0.119-0.752,0.18-1.207,0.18
					c-1.043,0-1.852-0.296-2.43-0.889c-0.576-0.596-0.869-1.402-0.869-2.419c0-0.479,0.074-0.924,0.219-1.334
					c0.139-0.411,0.348-0.759,0.623-1.055c0.271-0.294,0.607-0.518,1.008-0.674c0.398-0.155,0.842-0.233,1.33-0.233
					c0.633,0,1.176,0.133,1.629,0.403c0.451,0.265,0.797,0.61,1.018,1.034c0.227,0.426,0.34,0.855,0.34,1.296
					c0,0.405-0.117,0.669-0.352,0.791C273.779,483.104,273.451,483.165,273.027,483.165 M269.855,482.244h2.938
					c-0.039-0.554-0.186-0.97-0.445-1.242c-0.26-0.277-0.6-0.412-1.025-0.412c-0.404,0-0.736,0.137-0.994,0.417
					C270.068,481.287,269.91,481.698,269.855,482.244"/>
				<path d="M279.77,483.165h-3.17c0.002,0.368,0.078,0.693,0.221,0.975c0.145,0.278,0.336,0.49,0.576,0.635
					c0.238,0.143,0.502,0.212,0.795,0.212c0.191,0,0.369-0.021,0.527-0.069c0.162-0.043,0.314-0.116,0.469-0.212
					c0.15-0.096,0.287-0.199,0.414-0.313c0.125-0.11,0.291-0.261,0.494-0.449c0.084-0.071,0.203-0.109,0.353-0.109
					c0.168,0,0.303,0.047,0.408,0.139c0.102,0.092,0.148,0.219,0.148,0.385c0,0.148-0.055,0.318-0.17,0.514
					c-0.111,0.197-0.285,0.384-0.52,0.566c-0.23,0.178-0.523,0.329-0.873,0.445c-0.348,0.119-0.754,0.18-1.207,0.18
					c-1.043,0-1.85-0.296-2.43-0.889c-0.578-0.596-0.867-1.402-0.867-2.419c0-0.479,0.07-0.924,0.217-1.334
					c0.141-0.411,0.35-0.759,0.623-1.055c0.271-0.294,0.607-0.518,1.008-0.674c0.398-0.155,0.844-0.233,1.33-0.233
					c0.631,0,1.174,0.133,1.633,0.403c0.451,0.265,0.791,0.61,1.014,1.034c0.225,0.426,0.34,0.855,0.34,1.296
					c0,0.405-0.119,0.669-0.35,0.791C280.52,483.104,280.191,483.165,279.77,483.165 M276.6,482.244h2.938
					c-0.041-0.554-0.191-0.97-0.447-1.242c-0.264-0.277-0.602-0.412-1.025-0.412c-0.404,0-0.736,0.137-0.996,0.417
					C276.81,481.287,276.65,481.698,276.6,482.244"/>
				<path d="M283.318,480.382v0.194c0.305-0.375,0.621-0.65,0.953-0.828c0.324-0.177,0.699-0.266,1.113-0.266
					c0.498,0,0.961,0.129,1.381,0.386c0.42,0.259,0.748,0.635,0.992,1.129c0.244,0.497,0.367,1.081,0.367,1.758
					c0,0.498-0.07,0.957-0.211,1.376c-0.141,0.418-0.336,0.767-0.58,1.05c-0.246,0.282-0.535,0.502-0.869,0.654
					c-0.338,0.15-0.693,0.228-1.08,0.228c-0.461,0-0.852-0.094-1.166-0.28c-0.313-0.183-0.613-0.459-0.9-0.816v2.433
					c0,0.711-0.26,1.069-0.777,1.069c-0.307,0-0.506-0.091-0.607-0.274c-0.094-0.187-0.147-0.453-0.147-0.807v-6.996
					c0-0.31,0.068-0.537,0.201-0.692c0.135-0.149,0.32-0.228,0.553-0.228c0.23,0,0.416,0.078,0.561,0.234
					C283.248,479.863,283.318,480.086,283.318,480.382 M286.496,482.736c0-0.427-0.066-0.795-0.197-1.101
					c-0.129-0.308-0.311-0.542-0.539-0.706c-0.23-0.163-0.49-0.247-0.772-0.247c-0.447,0-0.824,0.178-1.131,0.527
					c-0.307,0.354-0.461,0.872-0.461,1.559c0,0.641,0.152,1.146,0.459,1.504c0.305,0.357,0.68,0.536,1.133,0.536
					c0.268,0,0.52-0.078,0.748-0.232c0.232-0.158,0.416-0.392,0.553-0.704C286.426,483.559,286.496,483.18,286.496,482.736"/>
				<path d="M289.756,478.716c-0.227,0-0.418-0.071-0.576-0.209c-0.162-0.139-0.242-0.333-0.242-0.586
					c0-0.229,0.082-0.419,0.248-0.568c0.164-0.146,0.354-0.223,0.57-0.223c0.213,0,0.398,0.067,0.559,0.2
					c0.162,0.137,0.244,0.334,0.244,0.591c0,0.251-0.08,0.444-0.236,0.585C290.164,478.645,289.977,478.716,289.756,478.716
					 M290.559,480.391v4.689c0,0.322-0.076,0.567-0.23,0.732c-0.156,0.169-0.35,0.251-0.588,0.251c-0.238,0-0.43-0.085-0.58-0.254
					c-0.146-0.174-0.223-0.417-0.223-0.729v-4.642c0-0.319,0.076-0.56,0.223-0.722c0.15-0.166,0.342-0.245,0.58-0.245
					c0.238,0,0.432,0.079,0.588,0.245C290.482,479.878,290.559,480.103,290.559,480.391"/>
				<path d="M295.783,485.322l-1.428-2.353l-0.879,0.83v1.29c0,0.313-0.084,0.552-0.248,0.72c-0.162,0.169-0.353,0.254-0.566,0.254
					c-0.25,0-0.447-0.082-0.588-0.251c-0.143-0.165-0.215-0.41-0.215-0.733v-6.915c0-0.358,0.072-0.632,0.207-0.82
					c0.139-0.19,0.34-0.283,0.596-0.283c0.248,0,0.445,0.085,0.594,0.257c0.146,0.169,0.221,0.422,0.221,0.751v3.934l1.822-1.914
					c0.227-0.234,0.395-0.4,0.516-0.486c0.119-0.087,0.264-0.13,0.432-0.13c0.203,0,0.371,0.064,0.51,0.192
					c0.133,0.13,0.201,0.292,0.201,0.483c0,0.236-0.221,0.556-0.66,0.951l-0.859,0.789l1.66,2.614
					c0.121,0.196,0.213,0.341,0.266,0.441c0.053,0.099,0.082,0.199,0.082,0.288c0,0.259-0.072,0.459-0.215,0.61
					c-0.141,0.148-0.326,0.222-0.553,0.222c-0.197,0-0.352-0.052-0.459-0.16C296.113,485.793,295.965,485.6,295.783,485.322"/>
				<path d="M299.307,486.063c-0.246,0-0.455-0.08-0.635-0.238c-0.178-0.156-0.268-0.379-0.268-0.666
					c0-0.241,0.086-0.449,0.256-0.622c0.172-0.175,0.381-0.261,0.631-0.261c0.248,0,0.459,0.086,0.639,0.257
					c0.176,0.173,0.264,0.382,0.264,0.626c0,0.282-0.088,0.505-0.264,0.662C299.75,485.982,299.543,486.063,299.307,486.063"/>
				<path d="M307.367,484.055c0,0.201-0.061,0.418-0.182,0.647c-0.119,0.23-0.305,0.448-0.555,0.655
					c-0.246,0.208-0.557,0.377-0.934,0.503c-0.375,0.126-0.801,0.192-1.27,0.192c-1.002,0-1.785-0.295-2.348-0.877
					c-0.559-0.585-0.842-1.368-0.842-2.35c0-0.667,0.129-1.254,0.387-1.766c0.256-0.509,0.629-0.904,1.113-1.183
					c0.488-0.28,1.074-0.419,1.748-0.419c0.42,0,0.805,0.061,1.156,0.185c0.352,0.122,0.647,0.282,0.891,0.474
					c0.242,0.196,0.43,0.402,0.557,0.62c0.129,0.22,0.193,0.426,0.193,0.618c0,0.191-0.072,0.355-0.215,0.491
					c-0.146,0.135-0.322,0.203-0.525,0.203c-0.137,0-0.248-0.036-0.338-0.104c-0.09-0.07-0.189-0.182-0.299-0.339
					c-0.199-0.299-0.404-0.526-0.623-0.674c-0.215-0.152-0.488-0.227-0.82-0.227c-0.477,0-0.865,0.188-1.158,0.563
					c-0.293,0.372-0.439,0.887-0.439,1.533c0,0.305,0.039,0.587,0.113,0.842c0.074,0.255,0.184,0.473,0.326,0.653
					c0.143,0.179,0.314,0.315,0.516,0.409c0.203,0.095,0.426,0.14,0.666,0.14c0.326,0,0.603-0.074,0.834-0.225
					c0.236-0.151,0.44-0.38,0.617-0.689c0.098-0.182,0.205-0.323,0.318-0.427c0.113-0.102,0.256-0.155,0.422-0.155
					c0.197,0,0.363,0.077,0.49,0.226C307.301,483.725,307.367,483.887,307.367,484.055"/>
				<path d="M314.361,482.768c0,0.48-0.076,0.928-0.223,1.336c-0.154,0.408-0.369,0.759-0.654,1.051
					c-0.285,0.293-0.627,0.518-1.022,0.675c-0.398,0.153-0.844,0.234-1.336,0.234c-0.492,0-0.934-0.081-1.326-0.239
					c-0.389-0.156-0.73-0.385-1.016-0.677c-0.289-0.298-0.506-0.646-0.658-1.048c-0.143-0.402-0.219-0.847-0.219-1.332
					c0-0.491,0.078-0.941,0.225-1.35c0.15-0.408,0.367-0.756,0.648-1.045c0.281-0.289,0.621-0.511,1.02-0.668
					c0.402-0.156,0.844-0.234,1.326-0.234c0.49,0,0.935,0.078,1.336,0.238c0.398,0.156,0.74,0.384,1.027,0.674
					c0.287,0.297,0.502,0.644,0.65,1.045C314.287,481.836,314.361,482.279,314.361,482.768 M312.734,482.768
					c0-0.662-0.147-1.176-0.436-1.543c-0.289-0.373-0.682-0.555-1.172-0.555c-0.318,0-0.598,0.082-0.84,0.246
					c-0.24,0.163-0.426,0.406-0.557,0.727c-0.131,0.321-0.195,0.696-0.195,1.125c0,0.425,0.063,0.792,0.191,1.108
					c0.131,0.319,0.314,0.561,0.555,0.728c0.24,0.167,0.521,0.253,0.846,0.253c0.49,0,0.883-0.184,1.172-0.557
					C312.588,483.931,312.734,483.418,312.734,482.768"/>
				<path d="M320.545,482.887v2.153c0,0.342-0.076,0.595-0.232,0.769c-0.156,0.169-0.357,0.255-0.611,0.255
					c-0.244,0-0.445-0.086-0.594-0.255c-0.154-0.174-0.232-0.427-0.232-0.769v-2.581c0-0.408-0.014-0.727-0.039-0.953
					c-0.029-0.221-0.105-0.41-0.227-0.551c-0.123-0.148-0.318-0.221-0.582-0.221c-0.531,0-0.879,0.182-1.047,0.551
					c-0.168,0.36-0.254,0.883-0.254,1.566v2.188c0,0.337-0.078,0.593-0.227,0.766c-0.156,0.171-0.355,0.258-0.604,0.258
					c-0.248,0-0.447-0.087-0.603-0.258c-0.158-0.173-0.236-0.429-0.236-0.766v-4.636c0-0.307,0.07-0.539,0.211-0.695
					c0.143-0.16,0.328-0.238,0.555-0.238c0.223,0,0.408,0.076,0.559,0.222c0.146,0.149,0.221,0.354,0.221,0.615v0.153
					c0.283-0.334,0.584-0.582,0.902-0.738c0.322-0.162,0.678-0.24,1.07-0.24c0.408,0,0.758,0.082,1.049,0.243
					c0.293,0.163,0.533,0.41,0.727,0.735c0.273-0.33,0.566-0.577,0.881-0.738c0.313-0.16,0.658-0.24,1.039-0.24
					c0.44,0,0.824,0.089,1.146,0.262c0.318,0.174,0.557,0.424,0.715,0.746c0.139,0.296,0.207,0.758,0.207,1.386v3.164
					c0,0.342-0.076,0.595-0.228,0.769c-0.154,0.169-0.359,0.255-0.613,0.255c-0.246,0-0.445-0.087-0.602-0.258
					c-0.156-0.173-0.236-0.429-0.236-0.766v-2.725c0-0.35-0.014-0.626-0.043-0.836c-0.029-0.21-0.111-0.387-0.238-0.529
					c-0.133-0.143-0.332-0.215-0.596-0.215c-0.215,0-0.416,0.066-0.609,0.192c-0.191,0.124-0.342,0.298-0.451,0.508
					C320.605,481.709,320.545,482.192,320.545,482.887"/>
			</g>
			<g>
				<path d="M245.104,482.375c-0.002-0.003-0.002-0.006-0.002-0.011C245.102,482.369,245.102,482.372,245.104,482.375z"/>
				<path d="M245.186,482.893c0,0,0,0,0.002,0c-0.031-0.148-0.057-0.294-0.074-0.438C245.131,482.6,245.156,482.748,245.186,482.893
					z"/>
				<path d="M245.723,484.397c-0.004-0.006-0.008-0.013-0.012-0.021C245.715,484.384,245.719,484.391,245.723,484.397z"/>
				<path d="M245.67,484.297c-0.014-0.027-0.027-0.057-0.041-0.083C245.643,484.243,245.656,484.27,245.67,484.297z"/>
				<path d="M245.336,483.473c0.08,0.25,0.176,0.492,0.285,0.725c-0.111-0.237-0.205-0.48-0.283-0.725H245.336z"/>
				<path d="M251.377,476.164c0.313,0,0.545,0.026,0.809,0.07l0.076-0.477c0,0-0.732-0.226-1.695-0.147l-0.074-0.26
					c0.299-0.063,0.523-0.328,0.523-0.646c0-0.364-0.297-0.659-0.66-0.659c-0.365,0-0.66,0.295-0.66,0.659
					c0,0.317,0.223,0.583,0.521,0.646l0.084,0.289c-1.021,0.141-1.834,0.54-1.834,0.54l0.143,0.44
					c0.619-0.206,1.154-0.331,1.641-0.383C250.727,476.186,251.084,476.164,251.377,476.164z"/>
				<path d="M245.709,478.576l0.004-0.004c0.023-0.032,0.047-0.062,0.072-0.09l-0.197-0.142l-0.305-0.222
					c-0.016,0.023-0.496,0.465-0.875,1.279c-0.018-0.025-0.035-0.051-0.057-0.074c-0.113-0.124-0.273-0.188-0.475-0.184
					c-0.002,0-0.006,0-0.008,0c-0.125,0-0.211-0.041-0.268-0.093c0.057-0.071,0.09-0.16,0.09-0.258c0-0.23-0.188-0.419-0.418-0.419
					c-0.23,0-0.418,0.189-0.418,0.419c0,0.232,0.188,0.418,0.418,0.418c0.035,0,0.07-0.007,0.104-0.013
					c0.104,0.113,0.266,0.214,0.504,0.209c0.123-0.001,0.215,0.03,0.273,0.097c0.07,0.075,0.094,0.185,0.1,0.267
					c0,0.002,0,0.004,0,0.004c-0.273,0.744-0.195,1.669-0.195,1.669l0.662,0.025c0.012-0.337,0.061-0.927,0.23-1.393
					C245.281,479.166,245.693,478.6,245.709,478.576z"/>
				<path d="M257.127,476.718c-0.231,0-0.418,0.186-0.418,0.417c0,0.037,0.004,0.071,0.014,0.104
					c-0.113,0.104-0.215,0.268-0.211,0.507c0.002,0.124-0.029,0.213-0.096,0.273c-0.053,0.048-0.119,0.072-0.185,0.088
					c-0.49-0.689-1.096-1.109-1.096-1.109l-0.477,0.509c0.359,0.326,0.727,0.733,1.082,1.244c0.246,0.352,0.498,0.806,0.709,1.259
					l0.641-0.305c0,0-0.293-0.721-0.703-1.369c0.07-0.024,0.143-0.064,0.205-0.12c0.127-0.113,0.188-0.273,0.184-0.474
					c0-0.131,0.041-0.219,0.094-0.275c0.072,0.054,0.16,0.089,0.258,0.089c0.23,0,0.418-0.189,0.418-0.419
					C257.545,476.904,257.357,476.718,257.127,476.718z"/>
				<path d="M255.467,482.469c-0.883,0.43-2.332,0.996-4.238,1.262c-0.75,0.104-1.477,0.142-2.143,0.142
					c-0.869,0-1.639-0.064-2.227-0.139c-0.674-0.086-1.199-0.19-1.521-0.262c0.078,0.244,0.172,0.487,0.283,0.725
					c0.002,0.006,0.006,0.012,0.008,0.017c0.014,0.026,0.027,0.056,0.041,0.083c0.014,0.028,0.027,0.055,0.041,0.079
					c0.004,0.008,0.008,0.015,0.012,0.021c0.189,0.357,0.416,0.685,0.674,0.969c0.9,0.984,1.818,1.14,1.826,1.141l0.014,0.003
					l0.014,0.005c0.008,0.002,0.822,0.265,2.057,0.265c1.217,0,2.41-0.245,3.547-0.728c0.842-0.431,1.639-1.085,2.033-1.669
					c0.305-0.451,0.527-0.934,0.656-1.434c0.07-0.267,0.125-0.692,0.092-1.141C256.387,481.973,255.996,482.211,255.467,482.469z"/>
				<path d="M245.992,478.785c-0.025,0.037-0.408,0.578-0.709,1.408c-0.227,0.622-0.217,1.526-0.217,1.537v0.002
					c0,0.212,0.012,0.424,0.035,0.632c0,0.005,0,0.008,0.002,0.011c0.002,0.027,0.008,0.053,0.01,0.08
					c0.018,0.143,0.043,0.29,0.074,0.438c0.438,0.111,3.049,0.721,5.967,0.314c1.83-0.254,3.219-0.795,4.063-1.204
					c0.701-0.341,1.15-0.647,1.324-0.773c-0.174-0.644-0.65-1.65-1.088-2.279c-1.254-1.791-2.605-2.251-3.299-2.364
					c-0.266-0.044-0.477-0.068-0.777-0.068c-0.279,0-0.627,0.021-1.09,0.07c-0.465,0.049-0.982,0.171-1.582,0.373
					c-0.842,0.281-1.605,0.725-2.205,1.28l-0.02,0.019C246.391,478.341,246.205,478.514,245.992,478.785z M253.66,478.368
					c0.602,0,1.09,0.488,1.09,1.09c0,0.601-0.488,1.09-1.09,1.09c-0.6,0-1.088-0.489-1.088-1.09
					C252.572,478.856,253.061,478.368,253.66,478.368z M248.51,478.325c0.973,0,1.76,0.788,1.76,1.761
					c0,0.973-0.787,1.759-1.76,1.759c-0.971,0-1.76-0.786-1.76-1.759C246.75,479.113,247.539,478.325,248.51,478.325z"/>
			</g>
		</g>
	</g>
</g>
</svg>
